<?xml version="1.0" encoding="UTF-8" standalone="no"?>
<!DOCTYPE svg PUBLIC "-//W3C//DTD SVG 1.1//EN" "http://www.w3.org/Graphics/SVG/1.1/DTD/svg11.dtd">
<svg xmlns="http://www.w3.org/2000/svg" version="1.1" viewBox="0.00 0.00 1600.00 316.00">
<g stroke-width="2.00" fill="none" stroke-linecap="butt">
<path stroke="#700012" vector-effect="non-scaling-stroke" d="
  M 425.76 86.37
  L 425.69 302.93
  Q 425.69 303.43 425.18 303.43
  L 261.63 303.49"
/>
<path stroke="#700012" vector-effect="non-scaling-stroke" d="
  M 619.28 86.33
  L 619.29 303.17
  A 0.37 0.36 90.0 0 1 618.93 303.54
  L 458.59 303.52"
/>
<path stroke="#700012" vector-effect="non-scaling-stroke" d="
  M 811.91 86.50
  L 811.98 302.64
  A 0.89 0.89 0.0 0 1 811.09 303.53
  L 652.07 303.52"
/>
<path stroke="#700012" vector-effect="non-scaling-stroke" d="
  M 1005.34 86.49
  L 1005.34 303.19
  A 0.34 0.34 0.0 0 1 1005.00 303.53
  L 844.63 303.52"
/>
<path stroke="#700012" vector-effect="non-scaling-stroke" d="
  M 1197.99 86.51
  L 1198.00 303.01
  Q 1198.00 303.53 1197.48 303.53
  L 1038.10 303.52"
/>
<path stroke="#700012" vector-effect="non-scaling-stroke" d="
  M 1391.43 86.50
  L 1391.39 302.89
  Q 1391.39 303.40 1390.88 303.40
  L 1230.79 303.48"
/>
<path stroke="#700012" vector-effect="non-scaling-stroke" d="
  M 1587.47 86.48
  L 1587.41 302.91
  Q 1587.41 303.42 1586.91 303.42
  L 1424.11 303.48"
/>
<path stroke="#700012" vector-effect="non-scaling-stroke" d="
  M 198.22 50.28
  Q 200.33 53.34 202.84 56.15
  Q 203.86 57.29 203.85 58.84
  Q 203.80 88.48 203.86 117.16
  A 0.39 0.39 0.0 0 1 203.47 117.56
  L 130.00 117.57
  A 0.45 0.44 -0.0 0 0 129.55 118.01
  L 129.56 151.23
  Q 129.56 152.20 130.20 151.48
  L 141.73 138.55"
/>
<path stroke="#700012" vector-effect="non-scaling-stroke" d="
  M 148.84 130.61
  L 150.86 128.49
  Q 151.24 128.09 151.62 128.49
  L 153.60 130.54"
/>
<path stroke="#700012" vector-effect="non-scaling-stroke" d="
  M 228.89 212.36
  L 228.94 303.11
  A 0.43 0.43 0.0 0 1 228.51 303.54
  L 85.45 303.52"
/>
<path stroke="#700012" vector-effect="non-scaling-stroke" d="
  M 81.48 204.05
  L 92.90 191.60
  A 0.25 0.25 0.0 0 0 92.72 191.18
  L 12.10 191.09"
/>
<path stroke="#ef8091" vector-effect="non-scaling-stroke" d="
  M 187.48 64.13
  A 0.36 0.36 0.0 0 0 187.39 63.89
  L 152.32 25.37
  A 0.36 0.36 0.0 0 0 151.79 25.37
  L 115.86 63.91
  A 0.36 0.36 0.0 0 0 115.76 64.15
  L 115.76 99.13
  A 0.36 0.36 0.0 0 0 116.12 99.49
  L 187.12 99.49
  A 0.36 0.36 0.0 0 0 187.48 99.13
  L 187.48 64.13"
/>
<path stroke="#ef8091" vector-effect="non-scaling-stroke" d="
  M 20.76 168.24
  A 0.34 0.34 0.0 0 0 21.10 168.58
  L 109.40 168.58
  A 0.34 0.34 0.0 0 0 109.74 168.24
  L 109.74 125.53
  A 0.34 0.34 0.0 0 0 109.65 125.30
  L 65.92 76.37
  A 0.34 0.34 0.0 0 0 65.42 76.37
  L 20.85 125.30
  A 0.34 0.34 0.0 0 0 20.76 125.53
  L 20.76 168.24"
/>
<path stroke="#ef8091" vector-effect="non-scaling-stroke" d="
  M 204.74 223.26
  A 0.39 0.39 0.0 0 0 204.64 223.00
  L 151.48 165.47
  A 0.39 0.39 0.0 0 0 150.90 165.48
  L 98.60 223.85
  A 0.39 0.39 0.0 0 0 98.50 224.11
  L 98.50 276.35
  A 0.39 0.39 0.0 0 0 98.89 276.74
  L 204.35 276.74
  A 0.39 0.39 0.0 0 0 204.74 276.35
  L 204.74 223.26"
/>
<path stroke="#ef8091" vector-effect="non-scaling-stroke" d="
  M 374.78 182.88
  C 405.49 167.00 403.15 125.37 370.30 113.88
  Q 361.11 110.67 353.48 110.73
  Q 319.28 111.02 284.82 111.57
  Q 284.22 111.58 284.22 112.19
  L 284.22 263.21
  Q 284.22 263.77 284.79 263.77
  Q 313.11 263.65 345.50 263.82
  Q 357.86 263.88 364.64 262.36
  C 388.18 257.05 405.37 236.12 398.35 211.43
  Q 393.08 192.87 374.79 183.64
  Q 374.04 183.26 374.78 182.88"
/>
<path stroke="#ef8091" vector-effect="non-scaling-stroke" d="
  M 561.17 231.75
  A 0.35 0.35 0.0 0 1 561.51 232.01
  L 570.00 263.48
  A 0.35 0.35 0.0 0 0 570.34 263.74
  L 599.82 263.74
  A 0.35 0.35 0.0 0 0 600.15 263.28
  L 551.14 111.75
  A 0.35 0.35 0.0 0 0 550.81 111.51
  L 519.37 111.51
  A 0.35 0.35 0.0 0 0 519.04 111.75
  L 469.17 263.28
  A 0.35 0.35 0.0 0 0 469.50 263.74
  L 498.14 263.74
  A 0.35 0.35 0.0 0 0 498.47 263.50
  L 508.66 231.98
  A 0.35 0.35 0.0 0 1 508.99 231.74
  L 561.17 231.75"
/>
<path stroke="#ef8091" vector-effect="non-scaling-stroke" d="
  M 756.61 205.98
  C 756.59 224.90 749.37 242.21 727.63 242.95
  C 706.33 243.67 697.16 228.18 697.09 208.77
  Q 696.92 161.43 697.04 112.08
  Q 697.04 111.51 696.47 111.51
  L 668.26 111.51
  Q 667.72 111.51 667.72 112.05
  Q 667.64 164.12 667.70 212.44
  C 667.71 225.69 668.92 235.57 675.09 246.02
  C 688.90 269.46 720.93 274.11 744.97 268.51
  C 772.13 262.18 785.13 240.79 785.12 213.75
  Q 785.11 163.38 785.13 111.88
  A 0.36 0.36 0.0 0 0 784.77 111.52
  L 757.22 111.51
  Q 756.63 111.51 756.63 112.11
  Q 756.65 162.38 756.61 205.98"
/>
<path stroke="#ef8091" vector-effect="non-scaling-stroke" d="
  M 890.50 205.36
  A 0.40 0.40 0.0 0 1 890.90 204.96
  L 947.10 204.96
  A 0.40 0.40 0.0 0 1 947.50 205.36
  L 947.50 263.34
  A 0.40 0.40 0.0 0 0 947.90 263.74
  L 976.47 263.75
  A 0.40 0.40 0.0 0 0 976.87 263.35
  L 976.87 111.91
  A 0.40 0.40 0.0 0 0 976.47 111.51
  L 947.90 111.51
  A 0.40 0.40 0.0 0 0 947.50 111.91
  L 947.50 178.60
  A 0.40 0.40 0.0 0 1 947.10 179.00
  L 890.90 179.00
  A 0.40 0.40 0.0 0 1 890.50 178.60
  L 890.50 111.91
  A 0.40 0.40 0.0 0 0 890.10 111.51
  L 861.53 111.51
  A 0.40 0.40 0.0 0 0 861.13 111.91
  L 861.13 263.34
  A 0.40 0.40 0.0 0 0 861.53 263.74
  L 890.10 263.74
  A 0.40 0.40 0.0 0 0 890.50 263.34
  L 890.50 205.36"
/>
<path stroke="#ef8091" vector-effect="non-scaling-stroke" d="
  M 1140.69 231.74
  A 0.36 0.36 0.0 0 1 1141.04 232.01
  L 1149.53 263.47
  A 0.36 0.36 0.0 0 0 1149.88 263.74
  L 1178.48 263.74
  A 0.36 0.36 0.0 0 0 1178.82 263.27
  L 1130.67 111.76
  A 0.36 0.36 0.0 0 0 1130.33 111.51
  L 1098.91 111.51
  A 0.36 0.36 0.0 0 0 1098.57 111.76
  L 1048.71 263.27
  A 0.36 0.36 0.0 0 0 1049.05 263.74
  L 1077.65 263.75
  A 0.36 0.36 0.0 0 0 1078.00 263.49
  L 1087.33 232.00
  A 0.36 0.36 0.0 0 1 1087.68 231.74
  L 1140.69 231.74"
/>
<path stroke="#ef8091" vector-effect="non-scaling-stroke" d="
  M 1310.38 242.71
  C 1291.37 244.87 1279.60 234.65 1276.46 216.28
  Q 1275.78 212.28 1275.76 203.17
  Q 1275.68 157.45 1275.74 111.78
  A 0.27 0.26 -0.0 0 0 1275.47 111.52
  L 1247.53 111.51
  Q 1247.23 111.51 1247.23 111.81
  Q 1247.19 159.92 1247.24 212.40
  Q 1247.25 223.44 1248.16 228.54
  C 1254.26 262.70 1287.05 274.08 1318.05 269.75
  C 1347.75 265.61 1364.57 244.52 1364.63 214.91
  Q 1364.72 163.50 1364.67 112.15
  Q 1364.67 111.51 1364.03 111.51
  L 1335.79 111.51
  Q 1335.26 111.51 1335.26 112.04
  Q 1335.29 159.97 1335.26 207.79
  C 1335.25 224.70 1328.94 240.60 1310.38 242.71"
/>
<path stroke="#ef8091" vector-effect="non-scaling-stroke" d="
  M 1566.4067 115.0600
  A 19.06 17.73 90.1 0 0 1584.1700 96.0309
  A 19.06 17.73 90.1 0 0 1566.4733 76.9400
  A 19.06 17.73 90.1 0 0 1548.7100 95.9691
  A 19.06 17.73 90.1 0 0 1566.4067 115.0600"
/>
<path stroke="#ef8091" vector-effect="non-scaling-stroke" d="
  M 1471.90 153.18
  C 1473.02 144.59 1479.82 141.77 1487.64 141.77
  Q 1522.98 141.77 1553.23 141.77
  A 0.55 0.55 0.0 0 0 1553.78 141.22
  L 1553.78 111.80
  A 0.34 0.34 0.0 0 0 1553.43 111.46
  Q 1522.95 111.67 1490.74 111.43
  Q 1477.42 111.33 1472.00 112.83
  C 1452.11 118.32 1443.00 137.40 1443.29 157.17
  C 1443.65 182.10 1463.00 201.07 1487.80 201.43
  Q 1501.13 201.62 1514.70 201.44
  C 1524.44 201.31 1532.40 202.91 1533.72 213.70
  C 1535.10 225.02 1530.33 233.48 1517.50 233.48
  Q 1484.41 233.50 1450.78 233.48
  Q 1450.18 233.48 1450.18 234.09
  L 1450.19 263.06
  Q 1450.19 263.71 1450.84 263.71
  Q 1489.85 263.78 1522.65 263.72
  C 1547.61 263.67 1562.12 243.70 1563.21 220.06
  C 1564.32 196.27 1550.19 176.75 1526.93 171.52
  Q 1520.50 170.08 1508.55 170.25
  Q 1497.67 170.41 1487.25 170.34
  C 1477.96 170.27 1470.67 162.55 1471.90 153.18"
/>
<path stroke="#ef8091" vector-effect="non-scaling-stroke" d="
  M 1566.5418 112.3296
  A 16.01 15.13 89.6 0 0 1581.5596 96.2144
  A 16.01 15.13 89.6 0 0 1566.3182 80.3104
  A 16.01 15.13 89.6 0 0 1551.3004 96.4256
  A 16.01 15.13 89.6 0 0 1566.5418 112.3296"
/>
<path stroke="#ef8091" vector-effect="non-scaling-stroke" d="
  M 1563.09 97.70
  Q 1564.22 97.72 1565.26 97.78
  Q 1565.94 97.81 1566.33 98.42
  Q 1569.11 102.74 1571.68 106.79
  Q 1571.97 107.25 1572.51 107.24
  L 1574.65 107.22
  Q 1575.39 107.21 1574.99 106.59
  L 1569.71 98.27
  Q 1569.36 97.72 1570.00 97.58
  Q 1575.14 96.50 1574.45 90.44
  Q 1573.80 84.72 1567.77 84.76
  Q 1563.72 84.78 1559.61 84.71
  Q 1559.00 84.69 1559.00 85.31
  L 1559.00 106.74
  Q 1559.00 107.23 1559.49 107.23
  L 1561.99 107.23
  Q 1562.46 107.23 1562.46 106.76
  L 1562.47 98.29
  Q 1562.48 97.68 1563.09 97.70"
/>
<path stroke="#ef8091" vector-effect="non-scaling-stroke" d="
  M 1562.46 88.38
  L 1562.48 94.74
  A 0.26 0.26 0.0 0 0 1562.74 95.00
  L 1567.84 94.99
  A 4.08 3.15 -0.1 0 0 1571.91 91.83
  L 1571.91 91.25
  A 4.08 3.15 -0.1 0 0 1567.82 88.11
  L 1562.72 88.12
  A 0.26 0.26 0.0 0 0 1562.46 88.38"
/>
<path stroke="#ef8091" vector-effect="non-scaling-stroke" d="
  M 347.97 173.82
  C 367.05 173.92 375.60 144.66 356.09 137.13
  Q 352.74 135.84 349.94 135.82
  Q 331.98 135.67 314.05 135.76
  Q 313.52 135.77 313.52 136.29
  L 313.52 173.48
  Q 313.52 173.78 313.83 173.78
  Q 329.78 173.72 347.97 173.82"
/>
<path stroke="#ef8091" vector-effect="non-scaling-stroke" d="
  M 356.83 197.89
  Q 353.00 196.30 349.27 196.29
  Q 331.92 196.21 313.78 196.27
  A 0.26 0.26 0.0 0 0 313.52 196.53
  L 313.53 238.46
  A 0.18 0.18 0.0 0 0 313.71 238.64
  Q 331.78 238.82 349.66 238.60
  C 358.16 238.50 366.40 234.06 368.72 225.54
  C 371.70 214.57 368.05 202.55 356.83 197.89"
/>
<path stroke="#ef8091" vector-effect="non-scaling-stroke" d="
  M 515.81 206.20
  A 0.30 0.30 0.0 0 0 516.09 206.59
  L 552.44 206.78
  A 0.30 0.30 0.0 0 0 552.73 206.39
  L 534.86 147.92
  A 0.30 0.30 0.0 0 0 534.29 147.92
  L 515.81 206.20"
/>
<path stroke="#ef8091" vector-effect="non-scaling-stroke" d="
  M 1095.34 206.20
  A 0.30 0.30 0.0 0 0 1095.63 206.59
  L 1131.96 206.78
  A 0.30 0.30 0.0 0 0 1132.25 206.39
  L 1114.39 147.92
  A 0.30 0.30 0.0 0 0 1113.82 147.92
  L 1095.34 206.20"
/>
</g>
<path fill="#df0023" d="
  M 198.22 50.28
  Q 200.33 53.34 202.84 56.15
  Q 203.86 57.29 203.85 58.84
  Q 203.80 88.48 203.86 117.16
  A 0.39 0.39 0.0 0 1 203.47 117.56
  L 130.00 117.57
  A 0.45 0.44 -0.0 0 0 129.55 118.01
  L 129.56 151.23
  Q 129.56 152.20 130.20 151.48
  L 141.73 138.55
  L 148.84 130.61
  L 150.86 128.49
  Q 151.24 128.09 151.62 128.49
  L 153.60 130.54
  L 228.89 212.36
  L 228.94 303.11
  A 0.43 0.43 0.0 0 1 228.51 303.54
  L 85.45 303.52
  L 74.08 303.41
  Q 73.48 303.41 73.48 302.81
  L 73.48 213.26
  Q 73.48 212.75 73.83 212.37
  L 81.48 204.05
  L 92.90 191.60
  A 0.25 0.25 0.0 0 0 92.72 191.18
  L 12.10 191.09
  L 0.00 191.01
  L 0.00 115.97
  L 64.57 46.14
  Q 64.83 45.86 65.09 46.14
  L 99.03 82.33
  Q 99.38 82.71 99.38 82.19
  L 99.37 57.64
  Q 99.37 57.10 99.74 56.69
  L 151.77 0.33
  A 0.38 0.37 -44.5 0 1 152.32 0.33
  L 198.22 50.28
  Z
  M 187.48 64.13
  A 0.36 0.36 0.0 0 0 187.39 63.89
  L 152.32 25.37
  A 0.36 0.36 0.0 0 0 151.79 25.37
  L 115.86 63.91
  A 0.36 0.36 0.0 0 0 115.76 64.15
  L 115.76 99.13
  A 0.36 0.36 0.0 0 0 116.12 99.49
  L 187.12 99.49
  A 0.36 0.36 0.0 0 0 187.48 99.13
  L 187.48 64.13
  Z
  M 20.76 168.24
  A 0.34 0.34 0.0 0 0 21.10 168.58
  L 109.40 168.58
  A 0.34 0.34 0.0 0 0 109.74 168.24
  L 109.74 125.53
  A 0.34 0.34 0.0 0 0 109.65 125.30
  L 65.92 76.37
  A 0.34 0.34 0.0 0 0 65.42 76.37
  L 20.85 125.30
  A 0.34 0.34 0.0 0 0 20.76 125.53
  L 20.76 168.24
  Z
  M 204.74 223.26
  A 0.39 0.39 0.0 0 0 204.64 223.00
  L 151.48 165.47
  A 0.39 0.39 0.0 0 0 150.90 165.48
  L 98.60 223.85
  A 0.39 0.39 0.0 0 0 98.50 224.11
  L 98.50 276.35
  A 0.39 0.39 0.0 0 0 98.89 276.74
  L 204.35 276.74
  A 0.39 0.39 0.0 0 0 204.74 276.35
  L 204.74 223.26
  Z"
/>
<path fill="#ffffff" d="
  M 187.48 64.13
  L 187.48 99.13
  A 0.36 0.36 0.0 0 1 187.12 99.49
  L 116.12 99.49
  A 0.36 0.36 0.0 0 1 115.76 99.13
  L 115.76 64.15
  A 0.36 0.36 0.0 0 1 115.86 63.91
  L 151.79 25.37
  A 0.36 0.36 0.0 0 1 152.32 25.37
  L 187.39 63.89
  A 0.36 0.36 0.0 0 1 187.48 64.13
  Z"
/>
<path fill="#000000" d="
  M 198.22 50.28
  L 215.61 68.81
  A 1.35 1.32 23.7 0 1 215.98 69.73
  L 215.97 130.21
  A 0.38 0.38 0.0 0 1 215.59 130.59
  L 153.60 130.54
  L 151.62 128.49
  Q 151.24 128.09 150.86 128.49
  L 148.84 130.61
  L 142.37 130.61
  Q 141.84 130.61 141.84 131.13
  L 141.73 138.55
  L 130.20 151.48
  Q 129.56 152.20 129.56 151.23
  L 129.55 118.01
  A 0.45 0.44 0.0 0 1 130.00 117.57
  L 203.47 117.56
  A 0.39 0.39 0.0 0 0 203.86 117.16
  Q 203.80 88.48 203.85 58.84
  Q 203.86 57.29 202.84 56.15
  Q 200.33 53.34 198.22 50.28
  Z"
/>
<path fill="#df0023" d="
  M 425.76 86.37
  L 425.69 302.93
  Q 425.69 303.43 425.18 303.43
  L 261.63 303.49
  L 250.17 303.46
  Q 249.69 303.45 249.69 302.98
  L 249.69 73.79
  A 0.27 0.26 -0.0 0 1 249.96 73.53
  L 425.22 73.53
  Q 425.70 73.53 425.70 74.01
  L 425.76 86.37
  Z
  M 374.78 182.88
  C 405.49 167.00 403.15 125.37 370.30 113.88
  Q 361.11 110.67 353.48 110.73
  Q 319.28 111.02 284.82 111.57
  Q 284.22 111.58 284.22 112.19
  L 284.22 263.21
  Q 284.22 263.77 284.79 263.77
  Q 313.11 263.65 345.50 263.82
  Q 357.86 263.88 364.64 262.36
  C 388.18 257.05 405.37 236.12 398.35 211.43
  Q 393.08 192.87 374.79 183.64
  Q 374.04 183.26 374.78 182.88
  Z"
/>
<path fill="#df0023" d="
  M 619.28 86.33
  L 619.29 303.17
  A 0.37 0.36 90.0 0 1 618.93 303.54
  L 458.59 303.52
  L 447.02 303.42
  Q 446.56 303.42 446.56 302.96
  L 446.56 73.98
  A 0.46 0.45 -0.0 0 1 447.02 73.53
  L 618.71 73.53
  Q 619.18 73.53 619.19 74.00
  L 619.28 86.33
  Z
  M 561.17 231.75
  A 0.35 0.35 0.0 0 1 561.51 232.01
  L 570.00 263.48
  A 0.35 0.35 0.0 0 0 570.34 263.74
  L 599.82 263.74
  A 0.35 0.35 0.0 0 0 600.15 263.28
  L 551.14 111.75
  A 0.35 0.35 0.0 0 0 550.81 111.51
  L 519.37 111.51
  A 0.35 0.35 0.0 0 0 519.04 111.75
  L 469.17 263.28
  A 0.35 0.35 0.0 0 0 469.50 263.74
  L 498.14 263.74
  A 0.35 0.35 0.0 0 0 498.47 263.50
  L 508.66 231.98
  A 0.35 0.35 0.0 0 1 508.99 231.74
  L 561.17 231.75
  Z"
/>
<path fill="#df0023" d="
  M 811.91 86.50
  L 811.98 302.64
  A 0.89 0.89 0.0 0 1 811.09 303.53
  L 652.07 303.52
  L 640.31 303.52
  A 0.30 0.30 0.0 0 1 640.01 303.22
  L 640.01 74.26
  Q 640.01 73.53 640.74 73.53
  L 811.22 73.53
  Q 811.72 73.53 811.73 74.03
  L 811.91 86.50
  Z
  M 756.61 205.98
  C 756.59 224.90 749.37 242.21 727.63 242.95
  C 706.33 243.67 697.16 228.18 697.09 208.77
  Q 696.92 161.43 697.04 112.08
  Q 697.04 111.51 696.47 111.51
  L 668.26 111.51
  Q 667.72 111.51 667.72 112.05
  Q 667.64 164.12 667.70 212.44
  C 667.71 225.69 668.92 235.57 675.09 246.02
  C 688.90 269.46 720.93 274.11 744.97 268.51
  C 772.13 262.18 785.13 240.79 785.12 213.75
  Q 785.11 163.38 785.13 111.88
  A 0.36 0.36 0.0 0 0 784.77 111.52
  L 757.22 111.51
  Q 756.63 111.51 756.63 112.11
  Q 756.65 162.38 756.61 205.98
  Z"
/>
<path fill="#df0023" d="
  M 1005.34 86.49
  L 1005.34 303.19
  A 0.34 0.34 0.0 0 1 1005.00 303.53
  L 844.63 303.52
  L 833.15 303.45
  Q 832.67 303.45 832.67 302.98
  L 832.67 73.86
  Q 832.67 73.53 833.01 73.53
  L 1004.73 73.53
  Q 1005.21 73.53 1005.22 74.01
  L 1005.34 86.49
  Z
  M 890.50 205.36
  A 0.40 0.40 0.0 0 1 890.90 204.96
  L 947.10 204.96
  A 0.40 0.40 0.0 0 1 947.50 205.36
  L 947.50 263.34
  A 0.40 0.40 0.0 0 0 947.90 263.74
  L 976.47 263.75
  A 0.40 0.40 0.0 0 0 976.87 263.35
  L 976.87 111.91
  A 0.40 0.40 0.0 0 0 976.47 111.51
  L 947.90 111.51
  A 0.40 0.40 0.0 0 0 947.50 111.91
  L 947.50 178.60
  A 0.40 0.40 0.0 0 1 947.10 179.00
  L 890.90 179.00
  A 0.40 0.40 0.0 0 1 890.50 178.60
  L 890.50 111.91
  A 0.40 0.40 0.0 0 0 890.10 111.51
  L 861.53 111.51
  A 0.40 0.40 0.0 0 0 861.13 111.91
  L 861.13 263.34
  A 0.40 0.40 0.0 0 0 861.53 263.74
  L 890.10 263.74
  A 0.40 0.40 0.0 0 0 890.50 263.34
  L 890.50 205.36
  Z"
/>
<path fill="#df0023" d="
  M 1197.99 86.51
  L 1198.00 303.01
  Q 1198.00 303.53 1197.48 303.53
  L 1038.10 303.52
  L 1026.65 303.33
  Q 1026.12 303.32 1026.12 302.78
  L 1026.12 73.70
  A 0.17 0.17 0.0 0 1 1026.29 73.53
  L 1197.31 73.53
  Q 1197.89 73.53 1197.89 74.11
  L 1197.99 86.51
  Z
  M 1140.69 231.74
  A 0.36 0.36 0.0 0 1 1141.04 232.01
  L 1149.53 263.47
  A 0.36 0.36 0.0 0 0 1149.88 263.74
  L 1178.48 263.74
  A 0.36 0.36 0.0 0 0 1178.82 263.27
  L 1130.67 111.76
  A 0.36 0.36 0.0 0 0 1130.33 111.51
  L 1098.91 111.51
  A 0.36 0.36 0.0 0 0 1098.57 111.76
  L 1048.71 263.27
  A 0.36 0.36 0.0 0 0 1049.05 263.74
  L 1077.65 263.75
  A 0.36 0.36 0.0 0 0 1078.00 263.49
  L 1087.33 232.00
  A 0.36 0.36 0.0 0 1 1087.68 231.74
  L 1140.69 231.74
  Z"
/>
<path fill="#df0023" d="
  M 1391.43 86.50
  L 1391.39 302.89
  Q 1391.39 303.40 1390.88 303.40
  L 1230.79 303.48
  L 1219.21 303.44
  Q 1218.73 303.44 1218.73 302.96
  L 1218.73 74.02
  Q 1218.73 73.53 1219.23 73.53
  L 1390.96 73.53
  Q 1391.46 73.53 1391.46 74.03
  L 1391.43 86.50
  Z
  M 1310.38 242.71
  C 1291.37 244.87 1279.60 234.65 1276.46 216.28
  Q 1275.78 212.28 1275.76 203.17
  Q 1275.68 157.45 1275.74 111.78
  A 0.27 0.26 -0.0 0 0 1275.47 111.52
  L 1247.53 111.51
  Q 1247.23 111.51 1247.23 111.81
  Q 1247.19 159.92 1247.24 212.40
  Q 1247.25 223.44 1248.16 228.54
  C 1254.26 262.70 1287.05 274.08 1318.05 269.75
  C 1347.75 265.61 1364.57 244.52 1364.63 214.91
  Q 1364.72 163.50 1364.67 112.15
  Q 1364.67 111.51 1364.03 111.51
  L 1335.79 111.51
  Q 1335.26 111.51 1335.26 112.04
  Q 1335.29 159.97 1335.26 207.79
  C 1335.25 224.70 1328.94 240.60 1310.38 242.71
  Z"
/>
<path fill="#df0023" d="
  M 1587.47 86.48
  L 1587.41 302.91
  Q 1587.41 303.42 1586.91 303.42
  L 1424.11 303.48
  L 1412.69 303.45
  Q 1412.21 303.45 1412.21 302.97
  L 1412.21 74.03
  Q 1412.21 73.53 1412.72 73.53
  L 1586.82 73.53
  Q 1587.40 73.53 1587.40 74.11
  L 1587.47 86.48
  Z
  M 1566.4067 115.0600
  A 19.06 17.73 90.1 0 0 1584.1700 96.0309
  A 19.06 17.73 90.1 0 0 1566.4733 76.9400
  A 19.06 17.73 90.1 0 0 1548.7100 95.9691
  A 19.06 17.73 90.1 0 0 1566.4067 115.0600
  Z
  M 1471.90 153.18
  C 1473.02 144.59 1479.82 141.77 1487.64 141.77
  Q 1522.98 141.77 1553.23 141.77
  A 0.55 0.55 0.0 0 0 1553.78 141.22
  L 1553.78 111.80
  A 0.34 0.34 0.0 0 0 1553.43 111.46
  Q 1522.95 111.67 1490.74 111.43
  Q 1477.42 111.33 1472.00 112.83
  C 1452.11 118.32 1443.00 137.40 1443.29 157.17
  C 1443.65 182.10 1463.00 201.07 1487.80 201.43
  Q 1501.13 201.62 1514.70 201.44
  C 1524.44 201.31 1532.40 202.91 1533.72 213.70
  C 1535.10 225.02 1530.33 233.48 1517.50 233.48
  Q 1484.41 233.50 1450.78 233.48
  Q 1450.18 233.48 1450.18 234.09
  L 1450.19 263.06
  Q 1450.19 263.71 1450.84 263.71
  Q 1489.85 263.78 1522.65 263.72
  C 1547.61 263.67 1562.12 243.70 1563.21 220.06
  C 1564.32 196.27 1550.19 176.75 1526.93 171.52
  Q 1520.50 170.08 1508.55 170.25
  Q 1497.67 170.41 1487.25 170.34
  C 1477.96 170.27 1470.67 162.55 1471.90 153.18
  Z"
/>
<path fill="#ffffff" d="
  M 20.76 168.24
  L 20.76 125.53
  A 0.34 0.34 0.0 0 1 20.85 125.30
  L 65.42 76.37
  A 0.34 0.34 0.0 0 1 65.92 76.37
  L 109.65 125.30
  A 0.34 0.34 0.0 0 1 109.74 125.53
  L 109.74 168.24
  A 0.34 0.34 0.0 0 1 109.40 168.58
  L 21.10 168.58
  A 0.34 0.34 0.0 0 1 20.76 168.24
  Z"
/>
<path fill="#ffffff" d="
  M 1566.4067 115.0600
  A 19.06 17.73 90.1 0 1 1548.7100 95.9691
  A 19.06 17.73 90.1 0 1 1566.4733 76.9400
  A 19.06 17.73 90.1 0 1 1584.1700 96.0309
  A 19.06 17.73 90.1 0 1 1566.4067 115.0600
  Z
  M 1566.5418 112.3296
  A 16.01 15.13 89.6 0 0 1581.5596 96.2144
  A 16.01 15.13 89.6 0 0 1566.3182 80.3104
  A 16.01 15.13 89.6 0 0 1551.3004 96.4256
  A 16.01 15.13 89.6 0 0 1566.5418 112.3296
  Z"
/>
<path fill="#df0023" d="
  M 1566.5418 112.3296
  A 16.01 15.13 89.6 0 1 1551.3004 96.4256
  A 16.01 15.13 89.6 0 1 1566.3182 80.3104
  A 16.01 15.13 89.6 0 1 1581.5596 96.2144
  A 16.01 15.13 89.6 0 1 1566.5418 112.3296
  Z
  M 1563.09 97.70
  Q 1564.22 97.72 1565.26 97.78
  Q 1565.94 97.81 1566.33 98.42
  Q 1569.11 102.74 1571.68 106.79
  Q 1571.97 107.25 1572.51 107.24
  L 1574.65 107.22
  Q 1575.39 107.21 1574.99 106.59
  L 1569.71 98.27
  Q 1569.36 97.72 1570.00 97.58
  Q 1575.14 96.50 1574.45 90.44
  Q 1573.80 84.72 1567.77 84.76
  Q 1563.72 84.78 1559.61 84.71
  Q 1559.00 84.69 1559.00 85.31
  L 1559.00 106.74
  Q 1559.00 107.23 1559.49 107.23
  L 1561.99 107.23
  Q 1562.46 107.23 1562.46 106.76
  L 1562.47 98.29
  Q 1562.48 97.68 1563.09 97.70
  Z"
/>
<path fill="#ffffff" d="
  M 1562.47 98.29
  L 1562.46 106.76
  Q 1562.46 107.23 1561.99 107.23
  L 1559.49 107.23
  Q 1559.00 107.23 1559.00 106.74
  L 1559.00 85.31
  Q 1559.00 84.69 1559.61 84.71
  Q 1563.72 84.78 1567.77 84.76
  Q 1573.80 84.72 1574.45 90.44
  Q 1575.14 96.50 1570.00 97.58
  Q 1569.36 97.72 1569.71 98.27
  L 1574.99 106.59
  Q 1575.39 107.21 1574.65 107.22
  L 1572.51 107.24
  Q 1571.97 107.25 1571.68 106.79
  Q 1569.11 102.74 1566.33 98.42
  Q 1565.94 97.81 1565.26 97.78
  Q 1564.22 97.72 1563.09 97.70
  Q 1562.48 97.68 1562.47 98.29
  Z
  M 1562.46 88.38
  L 1562.48 94.74
  A 0.26 0.26 0.0 0 0 1562.74 95.00
  L 1567.84 94.99
  A 4.08 3.15 -0.1 0 0 1571.91 91.83
  L 1571.91 91.25
  A 4.08 3.15 -0.1 0 0 1567.82 88.11
  L 1562.72 88.12
  A 0.26 0.26 0.0 0 0 1562.46 88.38
  Z"
/>
<path fill="#000000" d="
  M 425.76 86.37
  L 437.38 86.60
  Q 437.95 86.62 437.95 87.19
  L 437.95 315.07
  Q 437.95 315.58 437.43 315.58
  L 262.28 315.58
  Q 261.81 315.58 261.80 315.11
  L 261.63 303.49
  L 425.18 303.43
  Q 425.69 303.43 425.69 302.93
  L 425.76 86.37
  Z"
/>
<path fill="#000000" d="
  M 619.28 86.33
  L 630.86 86.43
  A 0.54 0.54 0.0 0 1 631.40 86.97
  L 631.40 315.41
  A 0.17 0.17 0.0 0 1 631.23 315.58
  L 459.26 315.58
  Q 458.77 315.58 458.76 315.09
  L 458.59 303.52
  L 618.93 303.54
  A 0.37 0.36 90.0 0 0 619.29 303.17
  L 619.28 86.33
  Z"
/>
<path fill="#000000" d="
  M 811.91 86.50
  L 823.70 86.48
  A 0.30 0.30 0.0 0 1 824.00 86.78
  L 824.00 315.17
  A 0.42 0.41 0.0 0 1 823.58 315.58
  L 652.53 315.58
  A 0.45 0.45 0.0 0 1 652.08 315.13
  L 652.07 303.52
  L 811.09 303.53
  A 0.89 0.89 0.0 0 0 811.98 302.64
  L 811.91 86.50
  Z"
/>
<path fill="#000000" d="
  M 1005.34 86.49
  L 1017.19 86.49
  A 0.29 0.28 -0.0 0 1 1017.48 86.77
  L 1017.48 315.30
  A 0.28 0.28 0.0 0 1 1017.20 315.58
  L 845.28 315.58
  Q 844.81 315.58 844.80 315.11
  L 844.63 303.52
  L 1005.00 303.53
  A 0.34 0.34 0.0 0 0 1005.34 303.19
  L 1005.34 86.49
  Z"
/>
<path fill="#000000" d="
  M 1197.99 86.51
  L 1209.55 86.54
  Q 1210.04 86.54 1210.04 87.02
  L 1210.04 315.28
  A 0.31 0.30 -0.0 0 1 1209.73 315.58
  L 1038.74 315.58
  A 0.58 0.58 0.0 0 1 1038.16 315.01
  L 1038.10 303.52
  L 1197.48 303.53
  Q 1198.00 303.53 1198.00 303.01
  L 1197.99 86.51
  Z"
/>
<path fill="#000000" d="
  M 1391.43 86.50
  L 1403.04 86.56
  Q 1403.51 86.56 1403.51 87.03
  L 1403.51 315.03
  Q 1403.51 315.58 1402.96 315.58
  L 1231.23 315.58
  Q 1230.77 315.58 1230.77 315.12
  L 1230.79 303.48
  L 1390.88 303.40
  Q 1391.39 303.40 1391.39 302.89
  L 1391.43 86.50
  Z"
/>
<path fill="#000000" d="
  M 1587.47 86.48
  L 1599.28 86.48
  A 0.28 0.28 0.0 0 1 1599.56 86.76
  L 1599.56 315.26
  A 0.32 0.32 0.0 0 1 1599.24 315.58
  L 1424.76 315.58
  Q 1424.21 315.58 1424.21 315.04
  L 1424.11 303.48
  L 1586.91 303.42
  Q 1587.41 303.42 1587.41 302.91
  L 1587.47 86.48
  Z"
/>
<path fill="#df0023" d="
  M 1562.46 88.38
  A 0.26 0.26 0.0 0 1 1562.72 88.12
  L 1567.82 88.11
  A 4.08 3.15 -0.1 0 1 1571.91 91.25
  L 1571.91 91.83
  A 4.08 3.15 -0.1 0 1 1567.84 94.99
  L 1562.74 95.00
  A 0.26 0.26 0.0 0 1 1562.48 94.74
  L 1562.46 88.38
  Z"
/>
<path fill="#ffffff" d="
  M 374.79 183.64
  Q 393.08 192.87 398.35 211.43
  C 405.37 236.12 388.18 257.05 364.64 262.36
  Q 357.86 263.88 345.50 263.82
  Q 313.11 263.65 284.79 263.77
  Q 284.22 263.77 284.22 263.21
  L 284.22 112.19
  Q 284.22 111.58 284.82 111.57
  Q 319.28 111.02 353.48 110.73
  Q 361.11 110.67 370.30 113.88
  C 403.15 125.37 405.49 167.00 374.78 182.88
  Q 374.04 183.26 374.79 183.64
  Z
  M 347.97 173.82
  C 367.05 173.92 375.60 144.66 356.09 137.13
  Q 352.74 135.84 349.94 135.82
  Q 331.98 135.67 314.05 135.76
  Q 313.52 135.77 313.52 136.29
  L 313.52 173.48
  Q 313.52 173.78 313.83 173.78
  Q 329.78 173.72 347.97 173.82
  Z
  M 356.83 197.89
  Q 353.00 196.30 349.27 196.29
  Q 331.92 196.21 313.78 196.27
  A 0.26 0.26 0.0 0 0 313.52 196.53
  L 313.53 238.46
  A 0.18 0.18 0.0 0 0 313.71 238.64
  Q 331.78 238.82 349.66 238.60
  C 358.16 238.50 366.40 234.06 368.72 225.54
  C 371.70 214.57 368.05 202.55 356.83 197.89
  Z"
/>
<path fill="#ffffff" d="
  M 561.17 231.75
  L 508.99 231.74
  A 0.35 0.35 0.0 0 0 508.66 231.98
  L 498.47 263.50
  A 0.35 0.35 0.0 0 1 498.14 263.74
  L 469.50 263.74
  A 0.35 0.35 0.0 0 1 469.17 263.28
  L 519.04 111.75
  A 0.35 0.35 0.0 0 1 519.37 111.51
  L 550.81 111.51
  A 0.35 0.35 0.0 0 1 551.14 111.75
  L 600.15 263.28
  A 0.35 0.35 0.0 0 1 599.82 263.74
  L 570.34 263.74
  A 0.35 0.35 0.0 0 1 570.00 263.48
  L 561.51 232.01
  A 0.35 0.35 0.0 0 0 561.17 231.75
  Z
  M 515.81 206.20
  A 0.30 0.30 0.0 0 0 516.09 206.59
  L 552.44 206.78
  A 0.30 0.30 0.0 0 0 552.73 206.39
  L 534.86 147.92
  A 0.30 0.30 0.0 0 0 534.29 147.92
  L 515.81 206.20
  Z"
/>
<path fill="#ffffff" d="
  M 727.63 242.95
  C 749.37 242.21 756.59 224.90 756.61 205.98
  Q 756.65 162.38 756.63 112.11
  Q 756.63 111.51 757.22 111.51
  L 784.77 111.52
  A 0.36 0.36 0.0 0 1 785.13 111.88
  Q 785.11 163.38 785.12 213.75
  C 785.13 240.79 772.13 262.18 744.97 268.51
  C 720.93 274.11 688.90 269.46 675.09 246.02
  C 668.92 235.57 667.71 225.69 667.70 212.44
  Q 667.64 164.12 667.72 112.05
  Q 667.72 111.51 668.26 111.51
  L 696.47 111.51
  Q 697.04 111.51 697.04 112.08
  Q 696.92 161.43 697.09 208.77
  C 697.16 228.18 706.33 243.67 727.63 242.95
  Z"
/>
<path fill="#ffffff" d="
  M 890.50 205.36
  L 890.50 263.34
  A 0.40 0.40 0.0 0 1 890.10 263.74
  L 861.53 263.74
  A 0.40 0.40 0.0 0 1 861.13 263.34
  L 861.13 111.91
  A 0.40 0.40 0.0 0 1 861.53 111.51
  L 890.10 111.51
  A 0.40 0.40 0.0 0 1 890.50 111.91
  L 890.50 178.60
  A 0.40 0.40 0.0 0 0 890.90 179.00
  L 947.10 179.00
  A 0.40 0.40 0.0 0 0 947.50 178.60
  L 947.50 111.91
  A 0.40 0.40 0.0 0 1 947.90 111.51
  L 976.47 111.51
  A 0.40 0.40 0.0 0 1 976.87 111.91
  L 976.87 263.35
  A 0.40 0.40 0.0 0 1 976.47 263.75
  L 947.90 263.74
  A 0.40 0.40 0.0 0 1 947.50 263.34
  L 947.50 205.36
  A 0.40 0.40 0.0 0 0 947.10 204.96
  L 890.90 204.96
  A 0.40 0.40 0.0 0 0 890.50 205.36
  Z"
/>
<path fill="#ffffff" d="
  M 1140.69 231.74
  L 1087.68 231.74
  A 0.36 0.36 0.0 0 0 1087.33 232.00
  L 1078.00 263.49
  A 0.36 0.36 0.0 0 1 1077.65 263.75
  L 1049.05 263.74
  A 0.36 0.36 0.0 0 1 1048.71 263.27
  L 1098.57 111.76
  A 0.36 0.36 0.0 0 1 1098.91 111.51
  L 1130.33 111.51
  A 0.36 0.36 0.0 0 1 1130.67 111.76
  L 1178.82 263.27
  A 0.36 0.36 0.0 0 1 1178.48 263.74
  L 1149.88 263.74
  A 0.36 0.36 0.0 0 1 1149.53 263.47
  L 1141.04 232.01
  A 0.36 0.36 0.0 0 0 1140.69 231.74
  Z
  M 1095.34 206.20
  A 0.30 0.30 0.0 0 0 1095.63 206.59
  L 1131.96 206.78
  A 0.30 0.30 0.0 0 0 1132.25 206.39
  L 1114.39 147.92
  A 0.30 0.30 0.0 0 0 1113.82 147.92
  L 1095.34 206.20
  Z"
/>
<path fill="#ffffff" d="
  M 1276.46 216.28
  C 1279.60 234.65 1291.37 244.87 1310.38 242.71
  C 1328.94 240.60 1335.25 224.70 1335.26 207.79
  Q 1335.29 159.97 1335.26 112.04
  Q 1335.26 111.51 1335.79 111.51
  L 1364.03 111.51
  Q 1364.67 111.51 1364.67 112.15
  Q 1364.72 163.50 1364.63 214.91
  C 1364.57 244.52 1347.75 265.61 1318.05 269.75
  C 1287.05 274.08 1254.26 262.70 1248.16 228.54
  Q 1247.25 223.44 1247.24 212.40
  Q 1247.19 159.92 1247.23 111.81
  Q 1247.23 111.51 1247.53 111.51
  L 1275.47 111.52
  A 0.27 0.26 -0.0 0 1 1275.74 111.78
  Q 1275.68 157.45 1275.76 203.17
  Q 1275.78 212.28 1276.46 216.28
  Z"
/>
<path fill="#ffffff" d="
  M 1471.90 153.18
  C 1470.67 162.55 1477.96 170.27 1487.25 170.34
  Q 1497.67 170.41 1508.55 170.25
  Q 1520.50 170.08 1526.93 171.52
  C 1550.19 176.75 1564.32 196.27 1563.21 220.06
  C 1562.12 243.70 1547.61 263.67 1522.65 263.72
  Q 1489.85 263.78 1450.84 263.71
  Q 1450.19 263.71 1450.19 263.06
  L 1450.18 234.09
  Q 1450.18 233.48 1450.78 233.48
  Q 1484.41 233.50 1517.50 233.48
  C 1530.33 233.48 1535.10 225.02 1533.72 213.70
  C 1532.40 202.91 1524.44 201.31 1514.70 201.44
  Q 1501.13 201.62 1487.80 201.43
  C 1463.00 201.07 1443.65 182.10 1443.29 157.17
  C 1443.00 137.40 1452.11 118.32 1472.00 112.83
  Q 1477.42 111.33 1490.74 111.43
  Q 1522.95 111.67 1553.43 111.46
  A 0.34 0.34 0.0 0 1 1553.78 111.80
  L 1553.78 141.22
  A 0.55 0.55 0.0 0 1 1553.23 141.77
  Q 1522.98 141.77 1487.64 141.77
  C 1479.82 141.77 1473.02 144.59 1471.90 153.18
  Z"
/>
<path fill="#df0023" d="
  M 356.09 137.13
  C 375.60 144.66 367.05 173.92 347.97 173.82
  Q 329.78 173.72 313.83 173.78
  Q 313.52 173.78 313.52 173.48
  L 313.52 136.29
  Q 313.52 135.77 314.05 135.76
  Q 331.98 135.67 349.94 135.82
  Q 352.74 135.84 356.09 137.13
  Z"
/>
<path fill="#df0023" d="
  M 515.81 206.20
  L 534.29 147.92
  A 0.30 0.30 0.0 0 1 534.86 147.92
  L 552.73 206.39
  A 0.30 0.30 0.0 0 1 552.44 206.78
  L 516.09 206.59
  A 0.30 0.30 0.0 0 1 515.81 206.20
  Z"
/>
<path fill="#df0023" d="
  M 1095.34 206.20
  L 1113.82 147.92
  A 0.30 0.30 0.0 0 1 1114.39 147.92
  L 1132.25 206.39
  A 0.30 0.30 0.0 0 1 1131.96 206.78
  L 1095.63 206.59
  A 0.30 0.30 0.0 0 1 1095.34 206.20
  Z"
/>
<path fill="#ffffff" d="
  M 204.74 223.26
  L 204.74 276.35
  A 0.39 0.39 0.0 0 1 204.35 276.74
  L 98.89 276.74
  A 0.39 0.39 0.0 0 1 98.50 276.35
  L 98.50 224.11
  A 0.39 0.39 0.0 0 1 98.60 223.85
  L 150.90 165.48
  A 0.39 0.39 0.0 0 1 151.48 165.47
  L 204.64 223.00
  A 0.39 0.39 0.0 0 1 204.74 223.26
  Z"
/>
<path fill="#000000" d="
  M 81.48 204.05
  L 12.58 204.05
  A 0.50 0.49 90.0 0 1 12.09 203.55
  L 12.10 191.09
  L 92.72 191.18
  A 0.25 0.25 0.0 0 1 92.90 191.60
  L 81.48 204.05
  Z"
/>
<path fill="#df0023" d="
  M 356.83 197.89
  C 368.05 202.55 371.70 214.57 368.72 225.54
  C 366.40 234.06 358.16 238.50 349.66 238.60
  Q 331.78 238.82 313.71 238.64
  A 0.18 0.18 0.0 0 1 313.53 238.46
  L 313.52 196.53
  A 0.26 0.26 0.0 0 1 313.78 196.27
  Q 331.92 196.21 349.27 196.29
  Q 353.00 196.30 356.83 197.89
  Z"
/>
<path fill="#000000" d="
  M 228.89 212.36
  L 240.60 225.20
  Q 241.00 225.65 241.00 226.25
  L 241.00 315.23
  A 0.35 0.35 0.0 0 1 240.65 315.58
  L 85.81 315.58
  Q 85.55 315.58 85.55 315.33
  L 85.45 303.52
  L 228.51 303.54
  A 0.43 0.43 0.0 0 0 228.94 303.11
  L 228.89 212.36
  Z"
/>
</svg>
