<?xml version="1.0" encoding="UTF-8" standalone="no"?>
<!DOCTYPE svg PUBLIC "-//W3C//DTD SVG 1.1//EN" "http://www.w3.org/Graphics/SVG/1.1/DTD/svg11.dtd">
<svg xmlns="http://www.w3.org/2000/svg" version="1.1" viewBox="0.00 0.00 302.00 179.00">
<g stroke-width="2.00" fill="none" stroke-linecap="butt">
<path stroke="#1c2f44" vector-effect="non-scaling-stroke" d="
  M 126.53 32.32
  Q 124.62 35.78 119.71 36.30"
/>
<path stroke="#1c2f44" vector-effect="non-scaling-stroke" d="
  M 143.37 41.22
  L 132.93 47.18"
/>
<path stroke="#1c5481" vector-effect="non-scaling-stroke" d="
  M 173.19 43.83
  Q 169.46 42.78 165.54 43.77
  Q 164.03 44.15 163.75 45.47
  Q 163.64 45.97 164.13 46.14
  Q 166.25 46.87 167.69 48.49"
/>
<path stroke="#1c2f44" vector-effect="non-scaling-stroke" d="
  M 144.04 56.17
  L 157.49 49.34
  A 1.28 1.10 -79.1 0 0 157.83 49.07
  Q 158.45 48.36 157.97 47.99
  Q 157.76 47.83 157.49 47.86
  Q 153.88 48.31 150.55 49.41
  Q 147.79 50.32 144.81 50.86
  Q 141.90 51.40 138.96 52.06"
/>
<path stroke="#1c5481" vector-effect="non-scaling-stroke" d="
  M 175.93 41.68
  L 165.64 39.05
  Q 165.16 38.92 164.81 38.57
  L 164.50 38.26"
/>
<path stroke="#08304d" vector-effect="non-scaling-stroke" d="
  M 188.85 31.03
  Q 182.53 31.57 176.73 33.79
  Q 174.22 34.75 171.73 34.39"
/>
<path stroke="#1c5481" vector-effect="non-scaling-stroke" d="
  M 208.81 54.82
  Q 208.14 53.43 208.50 51.83
  A 1.47 1.45 40.4 0 0 208.42 50.95
  L 207.51 48.69"
/>
<path stroke="#1c5481" vector-effect="non-scaling-stroke" d="
  M 187.74 72.14
  Q 185.64 72.03 184.70 70.77
  Q 182.78 68.19 180.98 66.83
  Q 180.58 66.53 180.08 66.53
  Q 178.90 66.51 178.96 65.42"
/>
<path stroke="#113a5d" vector-effect="non-scaling-stroke" d="
  M 178.96 65.42
  Q 181.40 64.96 183.67 63.40"
/>
<path stroke="#1c5481" vector-effect="non-scaling-stroke" d="
  M 183.67 63.40
  Q 190.56 61.19 197.82 58.76
  C 199.28 58.28 200.62 58.42 201.80 57.22
  A 0.63 0.63 0.0 0 0 201.95 56.54
  L 201.27 54.67
  Q 201.08 54.16 200.60 53.91
  Q 199.90 53.55 199.37 52.89"
/>
<path stroke="#1c2f44" vector-effect="non-scaling-stroke" d="
  M 183.67 63.40
  Q 182.18 62.64 182.22 62.05"
/>
<path stroke="#1c2f44" vector-effect="non-scaling-stroke" d="
  M 160.93 73.41
  Q 161.37 74.18 162.75 74.13"
/>
<path stroke="#1c5481" vector-effect="non-scaling-stroke" d="
  M 162.75 74.13
  Q 160.83 74.28 161.03 75.47
  A 0.99 0.99 0.0 0 0 162.27 76.26
  Q 166.85 74.98 170.64 77.11
  A 1.34 1.34 0.0 0 0 172.60 75.65
  Q 172.10 73.48 172.58 71.45
  A 0.57 0.56 35.0 0 0 172.50 71.02
  Q 172.17 70.53 171.52 70.73"
/>
<path stroke="#1c2f44" vector-effect="non-scaling-stroke" d="
  M 171.52 70.73
  L 178.96 65.42"
/>
<path stroke="#1c5481" vector-effect="non-scaling-stroke" d="
  M 167.92 88.39
  L 162.29 87.64
  Q 161.41 87.52 162.12 86.99
  Q 163.42 86.03 164.94 85.59
  Q 165.45 85.44 165.52 84.92
  Q 165.76 83.35 164.53 82.31
  Q 163.59 81.52 162.72 80.67
  Q 158.95 76.95 154.18 79.19
  Q 153.69 79.42 153.17 79.30
  Q 151.49 78.93 149.75 78.50
  Q 148.11 78.09 146.25 76.69
  Q 143.40 74.56 140.26 73.88
  Q 140.10 73.84 140.03 73.68
  Q 139.93 73.41 139.65 73.47
  C 137.96 73.81 136.25 73.71 134.60 74.17
  Q 130.79 75.22 127.88 74.25
  Q 124.53 73.13 120.64 71.03
  Q 118.99 70.13 117.18 70.36
  Q 115.37 70.60 113.62 71.43"
/>
<path stroke="#113a5d" vector-effect="non-scaling-stroke" d="
  M 171.52 70.73
  Q 167.37 73.11 162.75 74.13"
/>
<path stroke="#142534" vector-effect="non-scaling-stroke" d="
  M 115.83 59.87
  Q 114.06 61.50 114.71 65.02
  Q 114.82 65.64 114.20 65.55
  L 104.75 64.16"
/>
<path stroke="#142534" vector-effect="non-scaling-stroke" d="
  M 106.36 54.86
  Q 104.28 56.72 104.33 59.46
  Q 104.35 60.36 103.45 60.46
  Q 102.34 60.59 101.79 61.76"
/>
<path stroke="#1c2f44" vector-effect="non-scaling-stroke" d="
  M 97.58 50.25
  L 95.55 56.60"
/>
<path stroke="#1c2f44" vector-effect="non-scaling-stroke" d="
  M 91.89 47.14
  Q 90.57 47.71 89.63 48.37
  C 88.62 49.08 87.81 49.11 86.68 49.36"
/>
<path stroke="#113a5d" vector-effect="non-scaling-stroke" d="
  M 139.15 10.99
  C 137.11 12.37 134.97 11.72 134.11 14.78"
/>
<path stroke="#090b10" vector-effect="non-scaling-stroke" d="
  M 161.81 20.00
  L 156.86 14.31"
/>
</g>
<path fill="#105f9a" d="
  M 118.06 0.00
  L 118.49 0.00
  L 139.15 10.99
  C 137.11 12.37 134.97 11.72 134.11 14.78
  L 117.77 1.39
  Q 117.36 1.05 117.58 0.57
  Q 117.71 0.28 118.06 0.00
  Z"
/>
<path fill="current" d="
  M 183.80 0.00
  L 184.36 0.00
  Q 184.84 0.34 184.79 0.80
  Q 184.76 1.11 184.36 1.44
  Q 172.99 10.74 161.81 20.00
  L 156.86 14.31
  L 183.80 0.00
  Z"
/>
<path fill="#111520" d="
  M 139.15 10.99
  Q 144.04 13.53 149.05 16.21
  Q 150.33 16.89 153.01 16.21
  Q 154.14 15.93 156.86 14.31
  L 161.81 20.00
  L 153.52 26.82
  A 3.70 3.69 -45.0 0 1 148.83 26.83
  L 134.11 14.78
  C 134.97 11.72 137.11 12.37 139.15 10.99
  Z"
/>
<path fill="#274967" d="
  M 126.53 32.32
  Q 124.62 35.78 119.71 36.30
  L 101.52 21.46
  A 0.80 0.80 0.0 0 1 101.94 20.05
  Q 103.08 19.93 104.40 20.61
  Q 115.48 26.33 126.53 32.32
  Z"
/>
<path fill="current" d="
  M 188.85 31.03
  Q 182.53 31.57 176.73 33.79
  Q 174.22 34.75 171.73 34.39
  Q 184.39 27.61 196.87 20.78
  Q 198.96 19.64 200.02 20.06
  Q 201.57 20.70 200.27 21.75
  L 188.85 31.03
  Z"
/>
<path fill="#105f9a" d="
  M 188.85 31.03
  L 175.93 41.68
  L 165.64 39.05
  Q 165.16 38.92 164.81 38.57
  L 164.50 38.26
  L 171.73 34.39
  Q 174.22 34.75 176.73 33.79
  Q 182.53 31.57 188.85 31.03
  Z"
/>
<path fill="#111520" d="
  M 126.53 32.32
  L 143.37 41.22
  L 132.93 47.18
  L 119.71 36.30
  Q 124.62 35.78 126.53 32.32
  Z"
/>
<path fill="#274967" d="
  M 164.50 38.26
  L 164.81 38.57
  Q 165.16 38.92 165.64 39.05
  L 175.93 41.68
  L 173.19 43.83
  Q 169.46 42.78 165.54 43.77
  Q 164.03 44.15 163.75 45.47
  Q 163.64 45.97 164.13 46.14
  Q 166.25 46.87 167.69 48.49
  Q 161.76 53.45 155.94 58.19
  C 153.06 60.53 150.99 61.55 147.58 59.14
  Q 145.73 57.85 144.04 56.17
  L 157.49 49.34
  A 1.28 1.10 -79.1 0 0 157.83 49.07
  Q 158.45 48.36 157.97 47.99
  Q 157.76 47.83 157.49 47.86
  Q 153.88 48.31 150.55 49.41
  Q 147.79 50.32 144.81 50.86
  Q 141.90 51.40 138.96 52.06
  L 132.93 47.18
  L 143.37 41.22
  Q 145.03 42.07 147.49 43.28
  Q 151.00 45.01 155.61 42.72
  Q 160.07 40.51 164.50 38.26
  Z"
/>
<path fill="#274967" d="
  M 208.81 54.82
  Q 208.14 53.43 208.50 51.83
  A 1.47 1.45 40.4 0 0 208.42 50.95
  L 207.51 48.69
  Q 212.43 45.66 217.71 43.20
  Q 219.78 42.24 221.06 43.23
  A 0.94 0.94 0.0 0 1 221.09 44.70
  L 208.81 54.82
  Z"
/>
<path fill="#274967" d="
  M 91.89 47.14
  Q 90.57 47.71 89.63 48.37
  C 88.62 49.08 87.81 49.11 86.68 49.36
  L 81.31 44.87
  A 1.03 1.03 0.0 0 1 81.92 43.05
  Q 83.61 42.95 85.28 43.76
  Q 88.38 45.27 91.89 47.14
  Z"
/>
<path fill="#105f9a" d="
  M 173.19 43.83
  L 167.69 48.49
  Q 166.25 46.87 164.13 46.14
  Q 163.64 45.97 163.75 45.47
  Q 164.03 44.15 165.54 43.77
  Q 169.46 42.78 173.19 43.83
  Z"
/>
<path fill="#111520" d="
  M 91.89 47.14
  L 97.58 50.25
  L 95.55 56.60
  L 86.68 49.36
  C 87.81 49.11 88.62 49.08 89.63 48.37
  Q 90.57 47.71 91.89 47.14
  Z"
/>
<path fill="#111520" d="
  M 144.04 56.17
  L 138.96 52.06
  Q 141.90 51.40 144.81 50.86
  Q 147.79 50.32 150.55 49.41
  Q 153.88 48.31 157.49 47.86
  Q 157.76 47.83 157.97 47.99
  Q 158.45 48.36 157.83 49.07
  A 1.28 1.10 -79.1 0 1 157.49 49.34
  L 144.04 56.17
  Z"
/>
<path fill="#105f9a" d="
  M 207.51 48.69
  L 208.42 50.95
  A 1.47 1.45 40.4 0 1 208.50 51.83
  Q 208.14 53.43 208.81 54.82
  L 187.74 72.14
  Q 185.64 72.03 184.70 70.77
  Q 182.78 68.19 180.98 66.83
  Q 180.58 66.53 180.08 66.53
  Q 178.90 66.51 178.96 65.42
  Q 181.40 64.96 183.67 63.40
  Q 190.56 61.19 197.82 58.76
  C 199.28 58.28 200.62 58.42 201.80 57.22
  A 0.63 0.63 0.0 0 0 201.95 56.54
  L 201.27 54.67
  Q 201.08 54.16 200.60 53.91
  Q 199.90 53.55 199.37 52.89
  L 207.51 48.69
  Z"
/>
<path fill="#274967" d="
  M 97.58 50.25
  L 106.36 54.86
  Q 104.28 56.72 104.33 59.46
  Q 104.35 60.36 103.45 60.46
  Q 102.34 60.59 101.79 61.76
  L 95.55 56.60
  L 97.58 50.25
  Z"
/>
<path fill="#274967" d="
  M 199.37 52.89
  Q 199.90 53.55 200.60 53.91
  Q 201.08 54.16 201.27 54.67
  L 201.95 56.54
  A 0.63 0.63 0.0 0 1 201.80 57.22
  C 200.62 58.42 199.28 58.28 197.82 58.76
  Q 190.56 61.19 183.67 63.40
  Q 182.18 62.64 182.22 62.05
  L 199.37 52.89
  Z"
/>
<path fill="current" d="
  M 106.36 54.86
  L 115.83 59.87
  Q 114.06 61.50 114.71 65.02
  Q 114.82 65.64 114.20 65.55
  L 104.75 64.16
  L 101.79 61.76
  Q 102.34 60.59 103.45 60.46
  Q 104.35 60.36 104.33 59.46
  Q 104.28 56.72 106.36 54.86
  Z"
/>
<path fill="#274967" d="
  M 115.83 59.87
  Q 128.42 66.47 140.96 73.21
  Q 146.15 76.00 148.58 76.40
  C 153.71 77.25 156.54 75.67 160.93 73.41
  Q 161.37 74.18 162.75 74.13
  Q 160.83 74.28 161.03 75.47
  A 0.99 0.99 0.0 0 0 162.27 76.26
  Q 166.85 74.98 170.64 77.11
  A 1.34 1.34 0.0 0 0 172.60 75.65
  Q 172.10 73.48 172.58 71.45
  A 0.57 0.56 35.0 0 0 172.50 71.02
  Q 172.17 70.53 171.52 70.73
  L 178.96 65.42
  Q 178.90 66.51 180.08 66.53
  Q 180.58 66.53 180.98 66.83
  Q 182.78 68.19 184.70 70.77
  Q 185.64 72.03 187.74 72.14
  L 167.92 88.39
  L 162.29 87.64
  Q 161.41 87.52 162.12 86.99
  Q 163.42 86.03 164.94 85.59
  Q 165.45 85.44 165.52 84.92
  Q 165.76 83.35 164.53 82.31
  Q 163.59 81.52 162.72 80.67
  Q 158.95 76.95 154.18 79.19
  Q 153.69 79.42 153.17 79.30
  Q 151.49 78.93 149.75 78.50
  Q 148.11 78.09 146.25 76.69
  Q 143.40 74.56 140.26 73.88
  Q 140.10 73.84 140.03 73.68
  Q 139.93 73.41 139.65 73.47
  C 137.96 73.81 136.25 73.71 134.60 74.17
  Q 130.79 75.22 127.88 74.25
  Q 124.53 73.13 120.64 71.03
  Q 118.99 70.13 117.18 70.36
  Q 115.37 70.60 113.62 71.43
  L 104.75 64.16
  L 114.20 65.55
  Q 114.82 65.64 114.71 65.02
  Q 114.06 61.50 115.83 59.87
  Z"
/>
<path fill="#111520" d="
  M 182.22 62.05
  Q 182.18 62.64 183.67 63.40
  Q 181.40 64.96 178.96 65.42
  L 171.52 70.73
  Q 167.37 73.11 162.75 74.13
  Q 161.37 74.18 160.93 73.41
  L 182.22 62.05
  Z"
/>
<path fill="#105f9a" d="
  M 167.92 88.39
  Q 162.67 92.81 157.66 96.85
  Q 154.75 99.19 152.83 99.57
  C 149.67 100.20 147.61 99.23 145.18 97.25
  Q 129.51 84.45 113.62 71.43
  Q 115.37 70.60 117.18 70.36
  Q 118.99 70.13 120.64 71.03
  Q 124.53 73.13 127.88 74.25
  Q 130.79 75.22 134.60 74.17
  C 136.25 73.71 137.96 73.81 139.65 73.47
  Q 139.93 73.41 140.03 73.68
  Q 140.10 73.84 140.26 73.88
  Q 143.40 74.56 146.25 76.69
  Q 148.11 78.09 149.75 78.50
  Q 151.49 78.93 153.17 79.30
  Q 153.69 79.42 154.18 79.19
  Q 158.95 76.95 162.72 80.67
  Q 163.59 81.52 164.53 82.31
  Q 165.76 83.35 165.52 84.92
  Q 165.45 85.44 164.94 85.59
  Q 163.42 86.03 162.12 86.99
  Q 161.41 87.52 162.29 87.64
  L 167.92 88.39
  Z"
/>
<path fill="#105f9a" d="
  M 171.52 70.73
  Q 172.17 70.53 172.50 71.02
  A 0.57 0.56 35.0 0 1 172.58 71.45
  Q 172.10 73.48 172.60 75.65
  A 1.34 1.34 0.0 0 1 170.64 77.11
  Q 166.85 74.98 162.27 76.26
  A 0.99 0.99 0.0 0 1 161.03 75.47
  Q 160.83 74.28 162.75 74.13
  Q 167.37 73.11 171.52 70.73
  Z"
/>
<path fill="current" d="
  M 93.1860 156.0627
  A 22.31 22.31 0.0 0 1 70.8371 178.3338
  L 66.4771 178.3262
  A 22.31 22.31 0.0 0 1 44.2061 155.9773
  L 44.2140 151.4173
  A 22.31 22.31 0.0 0 1 66.5629 129.1462
  L 70.9229 129.1538
  A 22.31 22.31 0.0 0 1 93.1939 151.5027
  L 93.1860 156.0627
  Z
  M 84.24 143.52
  C 81.58 135.67 74.97 131.27 66.57 132.12
  C 59.26 132.85 54.15 138.86 52.46 145.75
  Q 50.03 155.60 53.22 164.31
  C 56.12 172.26 63.19 176.59 71.61 175.29
  C 86.10 173.04 87.86 154.19 84.24 143.52
  Z"
/>
<path fill="current" d="
  M 233.35 133.36
  C 222.57 129.16 212.59 135.20 209.73 146.32
  C 205.68 162.04 214.39 179.16 232.87 174.58
  Q 239.03 173.06 242.31 166.96
  Q 242.59 166.44 243.16 166.57
  Q 243.76 166.70 244.02 167.21
  Q 244.21 167.58 244.09 167.97
  Q 243.03 171.55 242.19 175.11
  Q 241.88 176.44 240.61 176.79
  C 225.84 180.94 205.73 178.33 201.94 160.20
  C 200.18 151.76 201.76 142.20 208.07 136.04
  C 216.44 127.87 232.01 126.57 241.68 132.93
  A 1.07 1.07 0.0 0 1 242.13 134.09
  Q 241.33 137.07 240.75 140.10
  Q 240.68 140.44 240.44 140.69
  Q 240.03 141.10 239.48 140.89
  Q 239.10 140.74 239.03 140.35
  Q 238.01 135.17 233.35 133.36
  Z"
/>
<path fill="current" d="
  M 301.5819 156.1154
  A 22.31 22.31 0.0 0 1 279.1941 178.3474
  L 274.8541 178.3323
  A 22.31 22.31 0.0 0 1 252.6222 155.9445
  L 252.6381 151.3646
  A 22.31 22.31 0.0 0 1 275.0259 129.1326
  L 279.3659 129.1477
  A 22.31 22.31 0.0 0 1 301.5978 151.5355
  L 301.5819 156.1154
  Z
  M 262.21 142.14
  C 258.77 149.56 259.05 161.30 263.82 168.46
  C 269.02 176.26 279.87 177.89 287.12 172.13
  C 294.92 165.94 295.71 153.38 293.05 144.43
  C 291.28 138.48 286.70 133.29 280.45 132.34
  Q 267.67 130.38 262.21 142.14
  Z"
/>
<path fill="current" d="
  M 1.23 174.73
  C 4.10 175.06 6.41 173.45 6.39 170.43
  Q 6.30 154.32 6.44 137.93
  C 6.47 134.32 4.63 132.34 0.79 132.74
  Q 0.61 132.76 0.57 132.59
  Q 0.26 131.28 0.56 130.02
  Q 0.59 129.89 0.73 129.89
  L 18.71 129.91
  A 0.90 0.89 -2.5 0 1 19.59 130.71
  L 19.70 131.75
  A 0.90 0.89 89.5 0 1 18.73 132.74
  Q 12.86 132.18 12.83 138.26
  Q 12.77 154.57 12.85 169.36
  Q 12.85 171.02 13.40 172.58
  C 14.46 175.63 20.04 175.00 22.70 174.99
  C 28.81 174.96 33.32 172.73 36.02 167.16
  A 1.00 0.98 -80.9 0 1 36.75 166.62
  Q 37.34 166.53 37.55 167.08
  Q 37.72 167.51 37.59 167.96
  Q 36.32 172.36 35.16 177.01
  Q 35.03 177.52 34.50 177.52
  L 0.99 177.54
  Q 0.44 177.54 0.44 176.99
  L 0.44 175.44
  A 0.72 0.71 2.9 0 1 1.23 174.73
  Z"
/>
<path fill="current" d="
  M 129.42 152.35
  C 136.34 154.28 141.30 157.33 141.02 165.20
  C 140.74 173.12 134.54 177.49 127.00 177.50
  Q 116.57 177.51 104.83 177.58
  Q 104.26 177.58 104.23 177.01
  L 104.14 175.55
  Q 104.09 174.66 104.97 174.75
  C 108.57 175.13 110.32 172.74 110.29 169.52
  Q 110.18 153.97 110.28 137.46
  C 110.30 134.33 108.04 132.35 104.82 132.76
  A 0.53 0.53 0.0 0 1 104.23 132.26
  L 104.14 130.31
  Q 104.13 129.94 104.49 129.93
  Q 114.76 129.81 124.74 130.00
  Q 131.34 130.13 135.55 133.83
  C 138.78 136.68 139.61 142.06 137.71 145.92
  Q 135.35 150.69 129.43 151.88
  Q 128.44 152.08 129.42 152.35
  Z
  M 117.27 151.20
  C 124.43 151.58 132.67 149.41 132.05 140.46
  C 131.59 133.95 126.03 132.06 120.38 132.72
  C 118.24 132.98 116.70 134.72 116.71 136.86
  Q 116.75 143.76 116.70 150.60
  Q 116.70 151.17 117.27 151.20
  Z
  M 134.36 166.94
  C 135.96 155.75 126.19 153.26 117.27 154.12
  Q 116.70 154.18 116.70 154.75
  Q 116.77 162.57 116.69 170.14
  C 116.66 172.54 117.96 174.58 120.56 174.76
  C 126.52 175.19 133.33 174.12 134.36 166.94
  Z"
/>
<path fill="current" d="
  M 167.09 155.70
  Q 166.99 164.42 167.16 171.18
  C 167.25 174.49 170.36 174.87 172.93 174.97
  C 180.98 175.30 187.06 174.76 190.94 167.13
  Q 191.16 166.69 191.66 166.74
  L 192.20 166.79
  Q 192.82 166.84 192.66 167.45
  L 190.08 177.03
  Q 189.95 177.52 189.44 177.52
  L 155.01 177.54
  Q 154.48 177.54 154.49 177.01
  L 154.51 175.10
  A 0.41 0.41 0.0 0 1 154.98 174.70
  C 158.58 175.21 160.57 173.18 160.55 169.83
  Q 160.44 153.13 160.55 138.06
  Q 160.60 132.41 154.97 132.72
  Q 154.50 132.75 154.50 132.28
  L 154.48 130.21
  Q 154.48 129.89 154.80 129.89
  L 188.77 129.91
  A 1.11 1.11 0.0 0 1 189.85 131.28
  L 187.62 140.40
  Q 187.50 140.87 187.07 141.10
  Q 186.75 141.26 186.40 141.08
  A 1.06 1.05 11.6 0 1 185.84 140.24
  C 185.30 134.56 181.32 132.38 176.17 132.62
  C 172.37 132.79 167.06 131.59 167.07 137.36
  Q 167.09 144.45 167.06 151.81
  A 0.39 0.39 0.0 0 0 167.45 152.20
  Q 172.31 152.25 176.79 152.20
  C 180.53 152.15 181.03 148.42 181.08 145.52
  A 0.65 0.64 -89.1 0 1 181.73 144.88
  L 183.08 144.90
  Q 183.53 144.91 183.53 145.36
  L 183.53 160.70
  Q 183.53 161.44 182.80 161.59
  L 182.21 161.70
  A 0.91 0.90 -6.6 0 1 181.13 160.85
  C 181.04 158.10 180.24 155.16 176.88 155.12
  Q 172.57 155.07 167.82 154.99
  Q 167.10 154.98 167.09 155.70
  Z"
/>
</svg>
