<?xml version="1.0" standalone="no"?>
<!DOCTYPE svg PUBLIC "-//W3C//DTD SVG 20010904//EN"
 "http://www.w3.org/TR/2001/REC-SVG-20010904/DTD/svg10.dtd">
<svg version="1.0" xmlns="http://www.w3.org/2000/svg"
 width="150.000000pt" height="25.000000pt" viewBox="0 0 150.000000 25.000000"
 preserveAspectRatio="xMidYMid meet">

<g transform="translate(0.000000,25.000000) scale(0.100000,-0.100000)"
fill="#000000" stroke="none">
<path d="M265 229 c-4 -6 -13 -40 -21 -76 -16 -75 -9 -93 35 -93 32 0 67 33
76 71 8 34 -18 63 -51 55 -21 -6 -23 -4 -14 18 12 31 -9 52 -25 25z m51 -83
c7 -19 -13 -56 -31 -56 -17 0 -19 23 -5 51 13 22 28 25 36 5z"/>
<path d="M1316 194 c-12 -17 -15 -29 -8 -36 5 -5 6 -24 2 -43 -5 -21 -3 -38 3
-44 16 -16 47 -13 47 4 0 8 -5 15 -11 15 -15 0 -2 52 17 66 16 12 20 39 4 29
-5 -3 -10 3 -10 14 0 28 -21 26 -44 -5z"/>
<path d="M42 180 c-49 -20 -55 -104 -7 -116 28 -7 55 0 55 15 0 5 -10 11 -22
13 -42 6 -30 68 13 68 11 0 19 7 19 15 0 17 -23 19 -58 5z"/>
<path d="M120 173 c0 -10 5 -38 11 -63 9 -40 8 -47 -10 -62 -24 -18 -28 -38
-8 -38 20 0 62 49 91 107 30 60 32 73 11 73 -8 0 -23 -19 -34 -42 -17 -39 -19
-40 -20 -16 -1 14 -4 33 -7 42 -8 22 -34 20 -34 -1z"/>
<path d="M395 165 c-46 -45 -23 -109 38 -103 42 4 48 28 8 28 -17 0 -31 5 -31
10 0 6 11 10 24 10 24 0 56 23 56 40 0 16 -31 40 -51 40 -11 0 -31 -11 -44
-25z m55 -14 c0 -5 -9 -11 -20 -14 -20 -5 -26 3 -13 16 9 10 33 8 33 -2z"/>
<path d="M516 182 c-2 -4 -7 -25 -11 -47 -4 -22 -9 -48 -12 -57 -3 -13 1 -18
15 -18 15 0 21 9 26 41 5 29 12 43 26 46 11 3 20 14 20 25 0 16 -3 17 -20 8
-14 -7 -20 -7 -20 0 0 12 -17 14 -24 2z"/>
<path d="M605 176 c-2 -6 -9 -38 -15 -71 -6 -33 -14 -68 -16 -77 -4 -13 0 -18
14 -18 13 0 22 9 26 25 5 18 13 25 29 25 49 0 92 93 55 117 -19 12 -90 11 -93
-1z m68 -28 c7 -20 -11 -58 -28 -58 -18 0 -20 41 -3 58 15 15 25 15 31 0z"/>
<path d="M747 183 c-2 -5 -7 -26 -11 -48 -4 -22 -9 -48 -12 -57 -4 -13 0 -18
15 -18 14 0 21 6 21 20 0 28 21 70 36 70 13 0 26 25 17 34 -3 3 -14 1 -24 -5
-13 -6 -19 -6 -19 1 0 12 -17 14 -23 3z"/>
<path d="M846 169 c-18 -14 -26 -30 -26 -53 0 -39 15 -56 52 -56 54 0 90 77
52 114 -21 22 -46 20 -78 -5z m54 -39 c0 -32 -23 -51 -41 -33 -14 14 7 63 26
63 10 0 15 -10 15 -30z"/>
<path d="M977 183 c-2 -5 -7 -26 -11 -48 -4 -22 -9 -48 -12 -57 -4 -13 0 -18
14 -18 15 0 22 9 27 38 8 41 23 65 36 56 8 -5 6 -26 -8 -76 -3 -13 1 -18 15
-18 15 0 21 9 26 39 6 40 29 70 40 52 3 -5 4 -15 2 -23 -17 -53 -16 -68 3 -68
21 0 31 25 31 83 0 42 -17 55 -48 38 -13 -7 -22 -7 -30 1 -9 9 -18 8 -37 0
-15 -7 -25 -8 -25 -2 0 12 -17 13 -23 3z"/>
<path d="M1202 180 c-47 -19 -53 -104 -8 -116 38 -9 66 5 81 39 14 34 10 55
-13 75 -18 14 -28 14 -60 2z m46 -44 c4 -20 -15 -46 -34 -46 -8 0 -14 10 -14
23 0 42 41 62 48 23z"/>
<path d="M1422 174 c-57 -40 -43 -118 20 -112 42 4 50 28 9 28 -17 0 -31 5
-31 10 0 6 9 10 21 10 31 0 59 19 59 40 0 18 -26 40 -47 40 -5 0 -19 -7 -31
-16z m38 -23 c0 -5 -7 -11 -15 -15 -15 -5 -20 5 -8 17 9 10 23 9 23 -2z"/>
</g>
</svg>
