<svg width="136.878" height="84.424" viewBox="0 0 136.878 84.424" xmlns="http://www.w3.org/2000/svg"><g id="svgGroup" stroke-linecap="round" fill-rule="evenodd" font-size="9pt" stroke="#000" stroke-width="0.25mm" fill="#000" style="stroke:#000;stroke-width:0.25mm;fill:#000"><path d="M 15.186 84.424 Q 14.307 84.424 12.843 80.762 A 20.895 20.895 0 0 1 11.854 77.48 Q 11.279 74.859 11.134 71.582 A 13.055 13.055 0 0 1 6.262 69.911 A 12.399 12.399 0 0 1 3.712 67.896 Q 0.733 64.844 0.733 59.375 A 27.8 27.8 0 0 1 1.895 51.573 A 35.881 35.881 0 0 1 3.565 47.046 Q 6.397 40.674 11.134 34.571 A 19.239 19.239 0 0 1 7.467 33.371 Q 5.285 32.388 3.749 30.903 A 11.047 11.047 0 0 1 2.76 29.81 Q 0.001 26.319 0.001 21.827 A 10.879 10.879 0 0 1 0.842 17.719 Q 1.43 16.267 2.43 14.793 A 19.949 19.949 0 0 1 2.735 14.356 A 25.886 25.886 0 0 1 6.212 10.461 A 35.635 35.635 0 0 1 10.23 7.276 A 40.835 40.835 0 0 1 18.113 3.083 A 48.218 48.218 0 0 1 21.07 2.002 A 40.557 40.557 0 0 1 33.839 0 A 19.933 19.933 0 0 1 35.075 0.037 Q 35.66 0.073 36.172 0.146 A 10.483 10.483 0 0 1 36.622 0.22 A 5.682 5.682 0 0 1 37.005 0.305 Q 37.58 0.454 37.736 0.665 A 0.274 0.274 0 0 1 37.794 0.83 A 0.325 0.325 0 0 1 37.604 1.141 Q 37.463 1.213 37.216 1.22 A 1.924 1.924 0 0 1 37.159 1.221 Q 36.622 1.221 35.719 1.123 Q 35.027 1.049 34.149 1.031 A 27.81 27.81 0 0 0 33.595 1.026 A 29.118 29.118 0 0 0 27.59 1.68 A 37.764 37.764 0 0 0 23.243 2.881 A 44.036 44.036 0 0 0 12.965 7.935 Q 8.155 11.133 5.128 15.235 A 16.24 16.24 0 0 0 2.955 19.166 A 13.167 13.167 0 0 0 2.1 23.829 A 7.684 7.684 0 0 0 3.368 28.018 A 10.981 10.981 0 0 0 4.664 29.663 Q 7.227 32.373 12.013 33.448 A 88.387 88.387 0 0 1 22.595 22.513 A 97.694 97.694 0 0 1 23.389 21.827 Q 29.786 16.358 36.866 12.183 A 79.819 79.819 0 0 1 46.578 7.285 A 68.763 68.763 0 0 1 50.977 5.616 A 47.045 47.045 0 0 1 58.021 3.784 A 36.199 36.199 0 0 1 64.259 3.223 Q 66.358 3.223 67.75 4.029 A 2.662 2.662 0 0 1 69.037 5.831 A 4.54 4.54 0 0 1 69.141 6.836 Q 69.141 9.408 67.266 12.244 A 19.156 19.156 0 0 1 66.016 13.916 A 32.557 32.557 0 0 1 62.871 17.178 Q 61.156 18.737 59.059 20.27 A 57.88 57.88 0 0 1 57.618 21.289 A 76.488 76.488 0 0 1 49.959 25.88 A 91.792 91.792 0 0 1 45.802 27.93 A 88.563 88.563 0 0 1 32.325 32.886 A 64.705 64.705 0 0 1 24.11 34.629 A 53.115 53.115 0 0 1 19.093 35.108 A 108.27 108.27 0 0 0 12.781 42.665 A 83.059 83.059 0 0 0 8.277 49.219 Q 5.583 53.592 4.588 57.226 A 15.195 15.195 0 0 0 4.005 61.231 A 12.47 12.47 0 0 0 4.233 63.69 Q 4.532 65.176 5.223 66.33 A 6.918 6.918 0 0 0 5.933 67.31 A 8.685 8.685 0 0 0 9.72 69.827 A 11.391 11.391 0 0 0 11.134 70.215 A 34.39 34.39 0 0 1 13.599 57.349 A 39.256 39.256 0 0 1 20.216 46.314 A 34.31 34.31 0 0 1 26.547 40.496 A 30.608 30.608 0 0 1 29.517 38.648 A 22.895 22.895 0 0 1 36.228 36.203 A 20.687 20.687 0 0 1 40.089 35.84 A 14.369 14.369 0 0 1 42.464 36.024 Q 43.742 36.238 44.762 36.704 A 6.637 6.637 0 0 1 46.363 37.72 A 6.144 6.144 0 0 1 48.523 42.203 A 8.33 8.33 0 0 1 48.536 42.676 Q 48.536 46.247 46.594 50.4 A 30.053 30.053 0 0 1 45.85 51.88 Q 43.165 56.885 38.355 61.402 A 40.884 40.884 0 0 1 27.768 68.548 A 46.047 46.047 0 0 1 27.174 68.824 A 32.733 32.733 0 0 1 13.443 71.729 A 37.024 37.024 0 0 1 13.429 71.729 A 11.577 11.577 0 0 1 13.154 71.726 Q 12.863 71.719 12.667 71.696 A 2.349 2.349 0 0 1 12.55 71.68 Q 12.624 73.699 13 76.276 A 69.308 69.308 0 0 0 13.258 77.906 Q 13.705 80.538 14.665 82.343 A 8.789 8.789 0 0 0 15.43 83.545 A 1.676 1.676 0 0 1 15.515 83.66 Q 15.591 83.774 15.615 83.862 A 0.285 0.285 0 0 1 15.626 83.936 L 15.626 84.18 A 0.201 0.201 0 0 1 15.498 84.372 Q 15.405 84.416 15.245 84.423 A 1.425 1.425 0 0 1 15.186 84.424 Z M 50.098 65.186 L 50.098 65.43 A 3.567 3.567 0 0 0 51.062 67.858 Q 51.64 68.509 52.564 69.068 A 10.019 10.019 0 0 0 55.783 70.292 Q 57.091 70.557 58.595 70.557 A 17.903 17.903 0 0 0 65.575 69.208 A 17.155 17.155 0 0 0 68.018 67.945 A 30.596 30.596 0 0 0 73.61 63.438 A 37.202 37.202 0 0 0 75.782 61.036 Q 79.346 56.739 82.545 51.514 A 1631.962 1631.962 0 0 0 88.917 41.016 L 89.893 39.405 Q 82.179 39.112 76.099 37.085 A 30.097 30.097 0 0 1 71.76 35.275 Q 68.695 33.686 66.627 31.543 A 11.448 11.448 0 0 1 64.385 28.3 Q 63.503 26.344 63.503 24.119 A 11.582 11.582 0 0 1 63.526 23.389 A 13.942 13.942 0 0 1 66.212 15.944 A 17.152 17.152 0 0 1 66.651 15.357 A 23.108 23.108 0 0 1 70.942 11.178 A 30.058 30.058 0 0 1 74.342 8.96 A 40.832 40.832 0 0 1 81.378 5.859 A 49.749 49.749 0 0 1 85.23 4.737 A 52.157 52.157 0 0 1 96.75 3.236 A 58.383 58.383 0 0 1 97.999 3.223 A 32.352 32.352 0 0 1 100.988 3.354 Q 102.458 3.491 103.74 3.77 A 18.403 18.403 0 0 1 104.322 3.907 A 18.287 18.287 0 0 1 105.174 4.142 Q 106.975 4.69 107.03 5.239 A 0.346 0.346 0 0 1 107.032 5.274 Q 107.032 5.469 106.446 5.469 Q 106.104 5.469 105.787 5.396 A 6.117 6.117 0 0 0 105.451 5.329 A 8.127 8.127 0 0 0 105.079 5.274 Q 103.516 4.883 101.881 4.615 A 18.364 18.364 0 0 0 100.443 4.441 Q 99.313 4.346 97.95 4.346 A 43.248 43.248 0 0 0 86.842 5.787 A 40.257 40.257 0 0 0 79.224 8.62 A 35.94 35.94 0 0 0 76.93 9.864 A 26.126 26.126 0 0 0 72.459 13.154 A 21.521 21.521 0 0 0 69.752 16.163 Q 67.042 19.825 66.798 24.317 Q 66.631 26.822 68.445 29.469 A 14.641 14.641 0 0 0 69.117 30.372 Q 71.632 33.497 77.003 35.694 Q 81.178 37.402 87.123 37.959 A 61.218 61.218 0 0 0 90.675 38.184 Q 102.345 19.825 112.11 11.524 A 46.152 46.152 0 0 1 118.109 7.152 Q 124.618 3.223 130.665 3.223 Q 133.24 3.223 134.873 4.431 A 5.385 5.385 0 0 1 135.304 4.786 A 4.703 4.703 0 0 1 136.731 7.348 Q 136.878 8.032 136.878 8.824 A 9.094 9.094 0 0 1 136.866 9.278 Q 136.721 12.061 134.985 15.352 A 27.986 27.986 0 0 1 133.57 17.725 A 37.61 37.61 0 0 1 129.782 22.507 Q 127.79 24.659 125.308 26.769 A 60.976 60.976 0 0 1 125.147 26.905 A 55.045 55.045 0 0 1 116.258 32.984 A 64.455 64.455 0 0 1 112.891 34.717 A 48.628 48.628 0 0 1 97.999 39.063 A 270.12 270.12 0 0 1 89.552 51.343 A 89.346 89.346 0 0 1 83.47 58.822 A 76.132 76.132 0 0 1 80.592 61.817 Q 75.929 66.407 70.68 69.068 A 24.644 24.644 0 0 1 59.376 71.729 A 23.497 23.497 0 0 1 56.281 71.538 Q 53.13 71.119 51.099 69.776 A 8.456 8.456 0 0 1 49.606 68.543 Q 48.145 66.996 48.145 65.039 A 4.769 4.769 0 0 1 48.289 63.827 A 3.068 3.068 0 0 1 49.659 61.939 A 6.636 6.636 0 0 1 51.031 61.271 A 5.062 5.062 0 0 1 52.686 60.987 Q 53.516 60.987 54.322 61.524 A 1.744 1.744 0 0 1 55.077 62.687 A 2.802 2.802 0 0 1 55.128 63.233 A 2.043 2.043 0 0 1 54.717 64.453 A 3.049 3.049 0 0 1 54.298 64.917 A 2.805 2.805 0 0 1 52.345 65.674 A 7.073 7.073 0 0 1 51.515 65.629 Q 50.642 65.525 50.098 65.186 Z M 31.682 31.237 A 75.038 75.038 0 0 0 32.081 31.104 A 106.809 106.809 0 0 0 44.801 25.879 A 108.345 108.345 0 0 0 52.285 21.882 A 91.677 91.677 0 0 0 56.373 19.336 A 69.555 69.555 0 0 0 60.018 16.767 Q 61.764 15.445 63.194 14.157 A 35.064 35.064 0 0 0 64.796 12.622 Q 67.97 9.375 67.97 6.983 A 2.979 2.979 0 0 0 67.877 6.215 A 1.927 1.927 0 0 0 66.92 4.981 Q 66.094 4.52 64.862 4.422 A 8.805 8.805 0 0 0 64.161 4.395 Q 60.548 4.395 55.274 6.812 Q 50.001 9.229 43.946 13.404 A 139.647 139.647 0 0 0 34.837 20.27 A 160.024 160.024 0 0 0 31.788 22.828 A 149.758 149.758 0 0 0 20.313 33.789 Q 25.517 33.269 31.682 31.237 Z M 98.927 37.696 Q 105.958 36.524 112.257 33.326 A 56.474 56.474 0 0 0 120.826 28 A 49.877 49.877 0 0 0 123.438 25.879 Q 128.321 21.631 131.178 17.188 A 25.012 25.012 0 0 0 132.826 14.226 Q 134.101 11.486 134.229 9.082 A 9.349 9.349 0 0 0 134.263 8.573 Q 134.318 7.105 133.841 6.203 A 2.486 2.486 0 0 0 133.204 5.42 A 5.035 5.035 0 0 0 132.289 4.824 Q 131.521 4.442 130.736 4.442 A 3.235 3.235 0 0 0 130.616 4.444 A 12.705 12.705 0 0 0 125.597 5.735 Q 122.044 7.41 118.256 11.247 A 44.411 44.411 0 0 0 117.75 11.768 Q 110.938 18.897 102.393 32.325 Q 101.514 33.692 100.636 35.01 Q 99.757 36.329 98.927 37.696 Z M 12.55 70.362 L 12.55 70.411 A 4.974 4.974 0 0 0 13.212 70.459 A 5.457 5.457 0 0 0 13.258 70.459 L 13.966 70.459 A 16.131 16.131 0 0 0 18.941 69.641 A 21.49 21.49 0 0 0 22.12 68.311 A 38.037 38.037 0 0 0 28.254 64.36 A 44.521 44.521 0 0 0 30.225 62.72 Q 34.132 59.278 37.257 55.298 A 48.889 48.889 0 0 0 40.058 51.361 A 37.258 37.258 0 0 0 42.213 47.51 A 24.699 24.699 0 0 0 43.178 45.235 Q 44.044 42.847 44.044 40.967 A 4.583 4.583 0 0 0 43.78 39.346 Q 43.022 37.334 40.082 37.173 A 9.668 9.668 0 0 0 39.552 37.159 A 15.431 15.431 0 0 0 35.129 37.84 Q 33.319 38.38 31.42 39.349 A 27.653 27.653 0 0 0 30.714 39.722 A 31.701 31.701 0 0 0 24.803 43.938 A 39.485 39.485 0 0 0 21.9 46.827 A 37.676 37.676 0 0 0 15.67 56.269 A 42.902 42.902 0 0 0 15.162 57.398 A 32.207 32.207 0 0 0 12.55 70.145 A 36.681 36.681 0 0 0 12.55 70.362 Z" vector-effect="non-scaling-stroke"/></g></svg>