<svg class="b_header__logo" aria-hidden="true" width="116" height="36" viewBox="0 0 220 31" version="1.1" xmlns="http://www.w3.org/2000/svg" xmlns:xlink="http://www.w3.org/1999/xlink" xml:space="preserve" xmlns:serif="http://www.serif.com/" style="fill-rule:evenodd;clip-rule:evenodd;stroke-linejoin:round;stroke-miterlimit:2;">
					<path class="b_header__logo-signet" d="M60,15.5C60,7.219 53.274,0.5 44.983,0.5L27.337,0.5L27.337,12.84L15.005,12.84L15.005,18.16L27.337,18.16L27.337,25.18L15.017,25.18C9.667,25.18 5.325,20.844 5.325,15.5C5.325,10.156 9.667,5.82 15.017,5.82L21.179,5.82L21.179,0.5L15.017,0.5C6.727,0.5 0,7.219 0,15.5C0,23.68 6.759,30.5 15.017,30.5L44.983,30.5C53.24,30.5 60,23.73 60,15.5M44.983,25.18L32.663,25.18L32.663,18.16L44.998,18.16L44.998,12.84L32.663,12.84L32.663,5.82L44.983,5.82C50.333,5.82 54.673,10.156 54.673,15.5C54.673,20.844 50.333,25.18 44.983,25.18" style="fill-rule:nonzero;"></path>
					<path class="b_header__logo-text" d="M202.213,10.897C201.367,11.382 200.418,11.799 199.317,11.799C197.91,11.799 196.929,10.983 196.827,9.543L202.857,9.543C202.857,6.419 201.943,4.144 198.707,4.144C195.997,4.144 194.659,6.279 194.659,8.866C194.659,11.799 196.336,13.5 199.216,13.5C200.436,13.5 201.383,13.257 202.213,12.788L202.213,10.897ZM97.206,10.897C96.359,11.382 95.411,11.799 94.31,11.799C92.904,11.799 91.922,10.983 91.82,9.543L97.85,9.543C97.85,6.419 96.935,4.144 93.7,4.144C90.99,4.144 89.651,6.279 89.651,8.866C89.651,11.799 91.328,13.5 94.209,13.5C95.428,13.5 96.376,13.257 97.206,12.788L97.206,10.897ZM172.451,10.897C171.604,11.382 170.656,11.799 169.555,11.799C168.148,11.799 167.165,10.983 167.065,9.543L173.095,9.543C173.095,6.419 172.181,4.144 168.945,4.144C166.233,4.144 164.897,6.279 164.897,8.866C164.897,11.799 166.572,13.5 169.452,13.5C170.672,13.5 171.621,13.257 172.451,12.788L172.451,10.897ZM104.965,4.475C104.253,4.318 103.559,4.145 102.492,4.145C100.713,4.145 99.07,4.995 99.07,6.922C99.07,10.15 103.017,8.952 103.017,10.705C103.017,11.574 102.102,11.799 101.526,11.799C100.746,11.799 100.002,11.574 99.29,11.209L99.154,13.119C99.984,13.344 100.865,13.5 101.729,13.5C103.576,13.5 105.389,12.667 105.389,10.584C105.389,7.356 101.441,8.258 101.441,6.835C101.441,6.071 102.17,5.845 102.78,5.845C103.61,5.845 104.118,5.985 104.813,6.227L104.965,4.475ZM139.69,10.897C138.843,11.382 137.894,11.799 136.793,11.799C135.387,11.799 134.406,10.983 134.304,9.543L140.334,9.543C140.334,6.419 139.419,4.144 136.184,4.144C133.474,4.144 132.135,6.279 132.135,8.866C132.135,11.799 133.812,13.5 136.693,13.5C137.911,13.5 138.859,13.257 139.69,12.788L139.69,10.897ZM114.078,10.897C113.231,11.382 112.283,11.799 111.182,11.799C109.776,11.799 108.793,10.983 108.692,9.543L114.722,9.543C114.722,6.419 113.807,4.144 110.572,4.144C107.861,4.144 106.522,6.279 106.522,8.866C106.522,11.799 108.2,13.5 111.079,13.5C112.299,13.5 113.249,13.257 114.078,12.788L114.078,10.897ZM142.5,9.613L146.387,9.613L146.387,13.5L147.612,13.5L147.612,9.613L151.5,9.613L151.5,8.387L147.612,8.387L147.612,4.5L146.387,4.5L146.387,8.387L142.5,8.387L142.5,9.613ZM215.562,10.601C215.562,12.371 216.544,13.5 218.322,13.5C219,13.5 219.525,13.431 220,13.292L219.932,11.452C219.694,11.608 219.306,11.695 218.899,11.695C218.035,11.695 217.831,10.983 217.831,10.22L217.831,6.054L219.847,6.054L219.847,4.354L217.831,4.354L217.831,1.818L215.562,2.564L215.562,4.352L213.885,4.352L213.885,6.052L215.562,6.052L215.562,10.601ZM82.961,1.472C81.944,1.159 80.86,0.968 79.488,0.968C75.473,0.968 73,3.294 73,7.442C73,11.539 75.66,13.5 79.488,13.5C80.758,13.5 82.063,13.222 83.316,12.875L83.316,6.349L78.54,6.349L78.54,8.259L81.047,8.259L81.047,11.417C80.536,11.54 80.012,11.598 79.487,11.591C76.964,11.591 75.473,9.734 75.473,7.269C75.473,4.787 76.998,2.877 79.759,2.877C80.708,2.877 81.894,3.086 82.808,3.52L82.961,1.472ZM122.394,4.44C121.769,4.25 121.108,4.144 120.193,4.144C117.466,4.144 115.974,6.194 115.974,8.779C115.974,11.504 117.414,13.5 120.277,13.5C121.209,13.5 121.887,13.413 122.547,13.205L122.447,11.278C122.057,11.452 121.345,11.695 120.701,11.695C119.108,11.695 118.346,10.428 118.346,8.779C118.346,7.096 119.244,5.949 120.651,5.949C121.345,5.949 121.786,6.089 122.192,6.279L122.395,4.439L122.394,4.44ZM177.009,13.292L179.566,13.292L182.784,4.353L180.514,4.353L178.414,10.862L178.38,10.862L176.211,4.353L173.771,4.353L177.008,13.293L177.009,13.292ZM204.602,13.292L206.872,13.292L206.872,8.918C206.872,7.772 207.227,5.95 208.872,5.95C210.328,5.95 210.344,7.425 210.344,8.519L210.344,13.292L212.614,13.292L212.614,7.651C212.614,5.637 211.716,4.144 209.65,4.144C208.464,4.144 207.498,4.544 206.787,5.568L206.754,5.568L206.754,4.353L204.602,4.353L204.602,13.292ZM190.661,13.292L192.931,13.292L192.931,4.353L190.661,4.353L190.661,13.292ZM184.139,13.292L186.409,13.292L186.409,10.012C186.409,8.727 186.409,6.366 188.255,6.366C188.662,6.366 189.068,6.436 189.271,6.558L189.271,4.214C189.035,4.144 188.798,4.144 188.577,4.144C187.222,4.144 186.29,5.55 186.189,6.384L186.155,6.384L186.155,4.354L184.139,4.354L184.139,13.292ZM153.495,13.292L156.73,13.292C160.356,13.292 163.558,12.042 163.558,7.235C163.558,2.426 160.356,1.177 156.73,1.177L153.495,1.177L153.495,13.292ZM126.275,7.929L126.275,0.505L124.005,0.505L124.005,13.292L126.274,13.292L126.274,8.952L126.307,8.952L129.222,13.292L132.102,13.292L128.442,8.345L131.695,4.353L129.018,4.353L126.308,7.929L126.275,7.929ZM85.654,13.292L87.924,13.292L87.924,4.353L85.654,4.353L85.654,13.292ZM155.867,3.086L157.189,3.086C159.17,3.086 161.085,4.596 161.085,7.235C161.085,9.873 159.17,11.382 157.189,11.382L155.867,11.382L155.867,3.086ZM134.304,7.946C134.406,6.748 135.048,5.846 136.319,5.846C137.59,5.846 138.097,6.817 138.165,7.946L134.304,7.946ZM108.691,7.946C108.793,6.748 109.437,5.846 110.707,5.846C111.977,5.846 112.486,6.817 112.554,7.946L108.691,7.946ZM167.064,7.946C167.164,6.748 167.81,5.846 169.08,5.846C170.35,5.846 170.859,6.817 170.927,7.946L167.064,7.946ZM196.828,7.946C196.928,6.748 197.571,5.846 198.842,5.846C200.113,5.846 200.62,6.817 200.689,7.946L196.828,7.946ZM91.82,7.946C91.922,6.748 92.565,5.846 93.836,5.846C95.107,5.846 95.614,6.817 95.682,7.946L91.82,7.946ZM190.661,2.722L192.931,2.722L192.931,0.5L190.661,0.5L190.661,2.722ZM85.654,2.722L87.924,2.722L87.924,0.5L85.654,0.5L85.654,2.722Z" style="fill-rule:nonzero;"></path>
				</svg>