<svg xmlns="http://www.w3.org/2000/svg" aria-hidden="true" class="logo logo--full" width="405.4" height="56.7" viewBox="0 0 405.4 56.7"><path fill="#000" d="M97.4 47.7h-6.1V33.1h-13v14.6h-6.1V13.2h6.1v14.2h13V13.2h6.1zM25.6 28.3l-5.2 7.5.9 1.3v10.6h8V33.6l-3.7-5.3zm12.6-23a5.2 5.2 0 10-5.2 5.3 5.3 5.3 0 005.2-5.3m9.5 28.6l5.2 2-5.4 1.3 1.8 5.3-4.6-3.4-3.3 4.7v-5.6l-5.6.4 4.3-3.5-3.9-4.1 5.5 1.2.9-5.7 2.5 5.2 5-2.8-2.4 5zm8.6 1.4a12.3 12.3 0 00-16.4-11.6l-.2.1-6.7-9.6-.8-1.1c-1-1.3-2.5-2-4.1-2a5.7 5.7 0 00-4.6 2.7L0 47.7h9.8l19.5-28.1 5.4 7.8a12.3 12.3 0 0018.6 16.2c1.9-2.4 3-5.3 3-8.3M193.2 47.7h-5.9V32.2c0-3.2-1.6-4.8-4.7-4.8-1.4 0-2.8.3-4 1.1.4 1.2.6 2.5.6 3.8v15.4h-5.9V32.2c0-3.3-1.4-4.8-4.5-4.8-1.2 0-2.4.1-3.6.5v19.8h-5.9V24.2l.7-.3c2.7-1.2 5.7-1.8 8.7-1.9 2.5-.1 4.9.7 6.9 2.1a13 13 0 017.2-2.2c6.4 0 10.4 4 10.4 10.3v15.5zM270 47.7h-5.9V33c0-4-1.5-5.6-5.3-5.6a21 21 0 00-4.3.5v19.8h-5.9V24.2l.6-.3c3-1.3 6.3-1.9 9.6-1.9 7.4 0 11.2 3.8 11.2 10.9v14.8zM298.1 48.2c-6.2 0-13.5-3.2-13.5-12.4V25c0-9.1 7.1-12.3 13.1-12.3 4.3 0 8.6 1.3 12.2 3.7l.2.1-3.4 4.7-.1-.1a15.4 15.4 0 00-8.9-2.5c-4.4 0-7 2.5-7 6.7V36c0 4.1 2.7 6.6 7.3 6.6 2.3 0 4.6-.6 6.5-1.9v-7h-7V28h13v14.9l-.3.3a16 16 0 01-12.1 5M135 47.7h-5.9V22c0-5.7 3.4-9.4 8.7-9.4l3.6.3h.2v5.2h-.2c-.9-.2-1.8-.2-2.7-.2-2.4 0-3.7 1.5-3.7 4.2v.9h6.2v5.2H135v19.5zM150.2 47.7h-5.9V22c0-5.7 3.4-9.4 8.7-9.4l3.6.3h.2v5.2h-.2c-.9-.2-1.8-.2-2.7-.2-2.4 0-3.7 1.5-3.7 4.2v.9h6.2v5.2h-6.2v19.5zM207.2 48.2c-6.9 0-10.8-3-10.8-8.1 0-5 3.9-7.8 10.6-7.8 1.5 0 3.1.1 4.6.3v-.7c0-3.4-1.2-4.6-4.6-4.6-2.3-.1-4.6.6-6.6 1.9l-.2.1-2.8-4.3.1-.1c2.9-2 6.3-3 9.8-2.8 6.5 0 10.1 3.5 10.1 9.9v14.6h-.1c-3.2 1-6.6 1.6-10.1 1.6m.1-11.2c-3.2 0-4.8 1-4.8 3 0 2.6 3 3 4.9 3a22 22 0 004.4-.5v-5.1l-4.5-.4M321.2 47.7h-5.9V24.1h.1c2.8-1.4 5.8-2.1 8.9-2.1 1.8 0 3.7.2 5.5.5h.2v5.1h-.2a34 34 0 00-4.5-.3h-.1c-1.4 0-2.7.2-4 .6v19.8zM113.7 48.2c-6.7 0-11-3.8-11-9.8V32c0-6.1 4.3-10 11-10s11 3.9 11 10v6.4c0 6-4.3 9.8-11 9.8m0-20.9c-3.3 0-5.1 1.6-5.1 4.7v6.4c0 2.9 1.8 4.5 5.1 4.5s5.1-1.5 5.1-4.5V32c0-3-1.8-4.7-5.1-4.7M243.8 47.7h-5.9V33c0-4-1.5-5.6-5.3-5.6a21 21 0 00-4.3.5v19.8h-5.9V24.2l.6-.3c3-1.3 6.3-1.9 9.6-1.9 7.4 0 11.2 3.8 11.2 10.8v14.9zM342.6 48.2c-6.7 0-11-3.8-11-9.8V32c0-6.1 4.3-10 11-10s11 3.9 11 10v6.4c0 6-4.3 9.8-11 9.8m0-20.9c-3.3 0-5.1 1.6-5.1 4.7v6.4c0 2.9 1.8 4.5 5.1 4.5s5.1-1.5 5.1-4.5V32c0-3-1.8-4.7-5.1-4.7M368.8 48.2c-7.3 0-11.1-3.8-11.1-10.9V22.6h5.9v14.6c0 4 1.5 5.7 5.2 5.7 1.4 0 2.8-.2 4.1-.5V22.6h5.9V46h-.1a22.4 22.4 0 01-9.9 2.2M389.8 56.7h-5.9V24h.1c3.3-1.3 6.7-2 10.2-2 7.1 0 11.1 3.9 11.1 10.6v5.2c0 6.2-4.3 10.3-10.7 10.3-1.7 0-3.3-.4-4.9-1l.1 9.6zm0-15c1.3.9 2.8 1.3 4.4 1.3 3.4 0 5.2-1.7 5.2-5v-5.4c0-3.7-1.6-5.3-5.3-5.3-1.5 0-2.9.2-4.3.6v13.8z"></path></svg>