<?xml version="1.0" standalone="no"?>
<!DOCTYPE svg PUBLIC "-//W3C//DTD SVG 20010904//EN"
 "http://www.w3.org/TR/2001/REC-SVG-20010904/DTD/svg10.dtd">
<svg version="1.0" xmlns="http://www.w3.org/2000/svg"
 width="510.000000pt" height="288.000000pt" viewBox="0 0 510.000000 288.000000"
 preserveAspectRatio="xMidYMid meet">

<g transform="translate(0.000000,288.000000) scale(0.100000,-0.100000)"
fill="#000000" stroke="none">
<path d="M2210 2406 c0 -2 33 -30 73 -62 249 -201 280 -224 303 -224 31 0 388
283 363 288 -9 2 -91 -35 -181 -83 -91 -47 -172 -85 -181 -85 -10 0 -94 38
-187 85 -154 77 -190 92 -190 81z"/>
<path d="M2030 2192 c0 -10 69 -67 333 -275 132 -104 206 -157 222 -157 16 0
83 47 197 138 95 75 215 170 266 211 89 70 107 91 79 91 -7 0 -126 -58 -264
-130 -138 -71 -262 -130 -276 -130 -14 0 -140 59 -280 130 -245 125 -277 139
-277 122z"/>
<path d="M1802 1939 c8 -23 739 -598 769 -604 15 -4 38 -1 51 6 38 20 748 590
748 600 0 18 -46 8 -100 -22 -30 -17 -187 -98 -348 -180 -250 -127 -301 -149
-339 -149 -39 0 -92 24 -385 176 -331 170 -406 203 -396 173z"/>
<path d="M1578 1007 c-123 -35 -188 -127 -188 -267 0 -120 68 -214 179 -247
102 -29 230 -2 295 63 126 128 87 364 -73 433 -64 27 -152 35 -213 18z m187
-51 c84 -55 116 -210 68 -326 -61 -148 -264 -157 -333 -15 -72 149 -5 342 127
364 48 8 104 -1 138 -23z"/>
<path d="M3355 1007 c-71 -19 -108 -40 -147 -87 -43 -49 -58 -98 -58 -183 0
-187 175 -294 399 -246 46 10 51 14 61 47 5 20 10 46 10 57 0 17 -4 15 -28
-12 -98 -106 -269 -86 -333 40 -30 57 -36 151 -15 215 35 104 98 147 204 140
57 -4 68 -8 92 -35 15 -17 30 -37 32 -44 8 -21 16 -7 24 37 6 41 6 41 -36 58
-57 23 -145 28 -205 13z"/>
<path d="M3930 1011 c-56 -13 -85 -28 -124 -62 -50 -44 -78 -101 -84 -176 -9
-118 34 -206 129 -258 49 -27 63 -30 144 -30 81 0 95 3 144 30 95 52 138 140
129 258 -9 102 -66 185 -153 222 -44 18 -139 26 -185 16z m156 -49 c37 -19 73
-70 89 -124 32 -110 10 -212 -59 -276 -119 -110 -288 -32 -312 145 -12 96 24
199 88 246 47 35 139 39 194 9z"/>
<path d="M900 995 c0 -8 7 -15 15 -15 8 0 24 -9 35 -20 19 -19 20 -33 20 -213
0 -175 -2 -196 -18 -210 -10 -10 -26 -17 -35 -17 -9 0 -17 -7 -17 -15 0 -13
28 -15 194 -15 l194 0 11 44 c18 74 15 86 -15 48 -14 -18 -39 -39 -54 -47 -38
-20 -163 -20 -179 -1 -8 9 -11 75 -9 217 l3 204 32 15 c62 29 41 40 -72 40
-87 0 -105 -3 -105 -15z"/>
<path d="M2060 996 c0 -9 7 -16 15 -16 8 0 24 -9 35 -20 19 -19 20 -33 20
-213 0 -175 -2 -196 -18 -210 -10 -10 -26 -17 -35 -17 -9 0 -17 -7 -17 -16 0
-14 19 -15 158 -12 142 3 161 5 193 25 43 27 59 59 59 118 0 55 -35 100 -90
116 l-39 12 38 19 c88 43 87 158 -2 205 -24 12 -66 18 -174 21 -127 4 -143 3
-143 -12z m287 -51 c25 -28 31 -82 12 -117 -14 -26 -68 -48 -119 -48 l-40 0 0
82 c0 103 13 122 80 115 32 -4 51 -13 67 -32z m-43 -206 c93 -26 126 -115 68
-180 -24 -27 -37 -33 -84 -37 -80 -6 -88 5 -88 129 l0 99 33 0 c17 0 50 -5 71
-11z"/>
<path d="M2625 999 c-4 -6 -5 -11 -4 -12 2 -1 18 -9 34 -17 l30 -16 0 -209 0
-210 -32 -10 c-18 -5 -33 -15 -33 -22 0 -10 43 -13 199 -13 l200 0 16 56 c9
31 14 58 11 61 -3 3 -17 -9 -32 -26 -39 -47 -74 -61 -153 -61 -97 0 -103 7
-99 124 l3 91 50 3 c63 3 99 -15 103 -51 2 -16 8 -27 15 -24 8 2 13 35 15 90
2 70 0 87 -11 87 -8 0 -17 -14 -21 -30 -7 -37 -41 -52 -105 -48 l-46 3 -3 87
c-3 106 11 128 82 128 68 0 106 -18 123 -58 8 -19 18 -31 22 -26 11 13 31 96
25 106 -8 12 -382 10 -389 -3z"/>
</g>
</svg>
