<svg xmlns="http://www.w3.org/2000/svg" version="1.1" viewBox="106.63 114.9 287.81 275.18">
<path fill="#111d28" d="   M 218.41 136.81   C 214.60 138.32 210.32 140.60 206.24 142.46   C 197.50 146.44 192.56 134.50 201.49 129.94   C 249.55 105.40 307.53 110.91 348.39 146.38   C 355.37 152.43 346.82 162.53 339.54 156.46   C 305.22 127.87 260.27 120.18 218.41 136.81   Z"/>
<circle fill="#111d28" cx="159.16" cy="146.87" r="7.15"/>
<path fill="#111d28" d="   M 222.39 184.88   C 216.15 182.33 217.61 175.89 222.77 173.04   Q 253.54 156.01 288.67 164.93   Q 292.15 165.81 293.17 162.37   L 293.40 161.56   A 2.88 2.88 0.0 0 0 291.46 157.99   C 267.03 150.70 239.62 153.46 217.84 167.21   C 212.92 170.32 206.32 177.06 200.77 171.00   Q 193.95 163.55 186.22 156.18   A 1.54 1.51 -21.9 0 0 185.18 155.75   C 170.29 155.49 176.31 137.99 185.68 141.59   Q 187.33 142.22 189.93 144.95   Q 198.52 153.94 202.79 157.71   Q 204.02 158.80 205.95 157.65   C 248.79 132.15 300.19 137.77 336.79 171.74   A 0.50 0.49 45.4 0 1 336.79 172.47   C 331.17 177.55 327.57 181.67 327.49 189.69   C 327.48 190.58 327.78 192.08 327.77 193.30   Q 327.76 193.79 327.40 194.13   L 307.05 213.59   Q 306.67 213.95 306.28 213.61   Q 304.01 211.69 301.82 209.70   C 274.81 185.18 232.51 197.68 222.29 232.47   A 0.91 0.91 0.0 0 0 222.86 233.59   C 228.34 235.52 232.52 239.51 233.09 245.41   C 233.61 250.69 230.54 256.34 225.49 258.27   Q 223.40 259.07 218.40 259.10   Q 198.76 259.19 179.03 259.16   A 0.57 0.56 -83.1 0 0 178.47 259.61   Q 175.80 272.63 165.04 280.52   C 132.36 304.47 91.53 267.31 112.25 232.62   C 126.51 208.74 159.26 209.55 174.20 232.55   A 0.74 0.73 73.8 0 1 173.58 233.69   Q 165.68 233.62 157.55 233.53   Q 155.34 233.50 153.16 232.50   C 146.21 229.33 140.24 228.51 133.26 232.39   C 114.15 243.01 120.63 273.76 143.39 273.29   Q 150.61 273.14 156.66 268.33   Q 157.06 268.01 157.58 268.01   C 160.73 268.05 164.04 268.83 166.19 265.88   C 168.27 263.05 166.15 259.64 162.99 259.23   C 160.08 258.84 155.76 259.70 152.80 258.20   C 144.74 254.09 148.38 243.41 157.25 243.32   Q 169.57 243.19 208.65 243.23   C 218.35 243.24 214.91 233.87 209.26 233.74   Q 200.56 233.53 192.02 233.64   A 0.56 0.56 0.0 0 1 191.46 232.98   C 195.04 213.73 206.97 197.41 222.50 185.71   A 0.48 0.48 0.0 0 0 222.39 184.88   Z   M 308.55 185.64   C 289.03 172.60 266.67 169.87 243.87 177.89   A 4.89 4.88 77.1 0 0 240.64 183.05   L 240.75 183.98   A 2.83 2.83 0.0 0 0 244.15 186.42   Q 252.13 184.73 258.27 183.59   Q 275.69 180.37 291.72 186.93   C 296.03 188.69 300.95 191.61 305.50 194.04   Q 307.88 195.31 309.23 195.22   C 311.81 195.04 314.16 191.86 312.38 189.37   Q 310.80 187.15 308.55 185.64   Z"/>
<path fill="#111d28" d="   M 358.70 185.70   C 356.29 188.09 354.71 190.81 356.54 194.55   C 361.51 204.75 366.29 213.79 368.80 225.03   A 0.57 0.56 -6.4 0 1 368.24 225.72   L 307.76 225.75   Q 306.92 225.75 307.54 225.18   Q 321.34 212.53 335.01 199.48   C 339.19 195.49 336.61 193.50 336.96 189.25   Q 337.34 184.58 340.53 181.52   Q 350.52 171.89 360.51 162.27   C 361.14 161.65 361.50 160.79 361.47 159.82   Q 361.24 152.08 367.32 149.18   C 380.05 143.10 390.36 161.30 378.81 169.50   C 377.04 170.76 373.73 171.50 372.31 172.81   Q 363.67 180.79 358.70 185.70   Z"/>
<circle fill="#111d28" cx="135.51" cy="172.14" r="9.76"/>
<ellipse fill="#111d28" cx="0.00" cy="0.00" transform="translate(161.79,174.19) rotate(65.3)" rx="7.37" ry="7.16"/>
<circle fill="#111d28" cx="184.81" cy="174.61" r="6.91"/>
<path fill="#111d28" d="   M 370.81 194.38   C 368.51 190.27 365.79 186.37 370.87 182.64   C 376.90 178.20 381.28 184.67 384.10 190.16   Q 390.81 203.23 394.03 217.52   C 396.57 228.79 383.04 230.96 381.23 222.25   Q 378.16 207.51 370.81 194.38   Z"/>
<path fill="#111d28" d="   M 199.51 195.12   C 192.09 204.05 186.72 214.02 183.10 224.98   A 0.47 0.47 0.0 0 1 182.29 225.13   Q 171.83 212.35 156.67 208.61   Q 151.18 207.25 140.20 207.34   Q 129.25 207.43 118.30 207.52   Q 114.32 207.55 112.76 206.98   C 108.60 205.47 107.63 200.28 109.92 196.86   C 111.63 194.31 114.11 193.76 117.30 193.75   Q 158.59 193.71 198.87 193.76   Q 200.63 193.76 199.51 195.12   Z"/>
<path fill="#111d28" d="   M 186.96 269.00   Q 187.23 268.25 188.02 268.27   L 196.03 268.41   Q 197.10 268.43 197.17 269.50   Q 197.34 271.93 198.09 274.60   Q 203.71 294.45 218.78 308.69   A 0.74 0.74 0.0 0 1 218.79 309.76   C 216.98 311.50 215.18 312.50 212.49 312.50   Q 163.87 312.57 115.25 312.53   C 107.00 312.52 105.87 298.67 116.50 298.75   Q 128.89 298.84 141.27 298.79   Q 152.67 298.74 158.05 297.18   C 171.95 293.15 182.10 282.73 186.96 269.00   Z"/>
<path fill="#111d28" d="   M 204.29 345.96   Q 203.36 346.25 202.55 347.04   Q 195.12 354.38 187.75 361.74   C 179.39 370.08 170.57 354.57 180.91 350.20   C 183.28 349.20 185.10 350.44 187.66 347.66   Q 196.36 338.19 201.56 333.07   Q 205.85 328.85 211.11 331.93   C 220.40 337.38 228.82 342.25 239.80 345.27   Q 280.67 356.50 317.20 333.36   A 3.16 3.16 0.0 0 0 318.07 328.84   L 317.58 328.16   Q 315.31 325.03 311.99 327.01   C 283.70 343.84 249.75 345.80 221.48 328.12   Q 217.37 325.55 218.51 321.62   C 219.54 318.03 223.25 316.61 226.69 316.11   A 1.31 1.27 56.2 0 1 227.57 316.30   C 243.72 326.42 261.24 330.63 280.22 327.42   Q 283.95 326.79 291.77 324.41   Q 295.42 323.30 294.58 319.59   L 294.38 318.72   A 3.18 3.17 78.3 0 0 290.71 316.30   C 286.25 317.13 281.63 318.52 277.73 319.02   C 243.71 323.46 215.11 301.75 206.14 269.11   A 0.61 0.60 -7.6 0 1 206.73 268.35   L 221.49 268.30   A 1.15 1.14 -8.1 0 1 222.59 269.12   C 233.41 306.26 279.73 316.13 306.08 289.40   A 0.73 0.73 0.0 0 1 307.10 289.38   L 330.09 310.81   A 3.89 3.89 0.0 0 0 335.40 310.79   L 336.28 309.96   Q 339.67 306.78 336.26 303.61   L 308.16 277.54   Q 307.82 277.22 308.28 277.22   L 368.52 277.19   A 0.72 0.72 0.0 0 1 369.22 278.07   C 359.05 324.02 319.33 358.18 272.85 362.25   Q 236.73 365.41 205.24 346.09   A 1.18 1.15 52.2 0 0 204.29 345.96   Z"/>
<path fill="#111d28" d="   M 340.57 365.83   C 300.96 393.35 247.35 398.51 203.22 375.83   C 200.55 374.45 197.58 372.37 196.91 369.34   C 195.78 364.25 201.06 359.96 206.06 362.29   Q 209.74 364.01 213.38 365.73   C 246.89 381.49 286.61 380.16 319.16 363.28   C 351.06 346.73 373.83 317.05 381.43 282.23   C 383.38 273.30 396.34 275.79 394.20 286.51   C 387.79 318.58 366.95 347.50 340.57 365.83   Z"/>
<circle fill="#111d28" cx="135.46" cy="332.15" r="9.77"/>
<ellipse fill="#111d28" cx="0.00" cy="0.00" transform="translate(161.67,330.53) rotate(49.4)" rx="7.32" ry="7.17"/>
<circle fill="#111d28" cx="184.14" cy="330.54" r="7.43"/>
<ellipse fill="#111d28" cx="0.00" cy="0.00" transform="translate(159.28,357.77) rotate(49.6)" rx="7.38" ry="7.17"/>
</svg>